<?xml version="1.0" standalone="no"?>
<!DOCTYPE svg PUBLIC "-//W3C//DTD SVG 1.1//EN" "http://www.w3.org/Graphics/SVG/1.1/DTD/svg11.dtd" >
<svg>
<metadata>
Created by FontForge 20090914 at Wed Jul 23 22:20:21 2014
 By www-data
(C) Copyright SoftUnion Ltd, 1993. Created by N.Vsesvetskii
</metadata>
<defs>
<font id="NewsCondensed" horiz-adv-x="450" >
  <font-face 
    font-family="NewsCondensed"
    font-weight="400"
    font-stretch="normal"
    units-per-em="1000"
    panose-1="0 0 0 0 0 0 0 0 0 0"
    ascent="800"
    descent="-200"
    x-height="572"
    cap-height="803"
    bbox="-98 -206.001 914 984"
    underline-thickness="50"
    underline-position="-108"
    unicode-range="U+0020-U+2122"
  />
<missing-glyph horiz-adv-x="794" 
d="M49 0v794h696v-794h-696zM696 49v696h-598v-696h598z" />
    <glyph glyph-name=".notdef" horiz-adv-x="794" 
d="M49 0v794h696v-794h-696zM696 49v696h-598v-696h598z" />
    <glyph glyph-name="space" unicode=" " horiz-adv-x="230" 
 />
    <glyph glyph-name="exclam" unicode="!" horiz-adv-x="155" 
d="M40 88h75v-88h-75v88zM40 803h75v-627h-75v627z" />
    <glyph glyph-name="quotedbl" unicode="&#x22;" horiz-adv-x="275" 
d="M40 803h75v-88l-18 -127h-39l-18 127v88zM160 803h75v-88l-18 -127h-39l-18 127v88z" />
    <glyph glyph-name="numbersign" unicode="#" horiz-adv-x="704" 
d="M200 331l29 139h-179l12 56h179l58 277h56l-58 -277h138l59 277h56l-59 -277h182l-12 -56h-182l-28 -139h181l-12 -56h-181l-59 -275h-56l59 275h-139l-58 -275h-56l58 275h-179l12 56h179zM285 470l-29 -139h139l28 139h-138z" />
    <glyph glyph-name="dollar" unicode="$" horiz-adv-x="456" 
d="M194 60l0.000976562 329.998c-58.667 44.667 -98 85.667 -118 123c-17.333 32.667 -26 70.334 -26 113.001c0 52 13.667 94.833 41 128.5s61.666 53.834 102.999 60.501v89h64v-90c42.667 -7.33301 77.167 -28.333 103.5 -63s39.5 -82.667 39.5 -144l-75 -10
c0 36.667 -6 67.5 -18 92.5s-28.667 42.833 -50 53.5v-300c54 -40 91 -72 111 -96c34.667 -42.667 52 -92 52 -148c0 -61.333 -15.667 -110.666 -47 -147.999c-28.667 -34.667 -67.334 -55.667 -116.001 -63v-85h-64v85c-47.333 7.33301 -84.666 30 -111.999 68
c-29.333 40.667 -44 94 -44 160l79 8c0 -38.667 7 -72.834 21 -102.501s32.667 -50.167 56 -61.5zM258.001 340.998v-286.998c26.667 5.33301 48 19.166 64 41.499s24 53.833 24 94.5c0 31.333 -8.33301 59.666 -25 84.999c-13.333 20.667 -34.333 42.667 -63 66z
M194.001 493l0.000976562 255.998c-22 -6 -39 -19.333 -51 -40s-18 -49 -18 -85c0 -25.333 6.66699 -49.666 20 -72.999c11.333 -19.333 27.666 -38.666 48.999 -57.999z" />
    <glyph glyph-name="percent" unicode="%" horiz-adv-x="637" 
d="M404 803h58l-230 -803h-58zM493 -14c-36.667 0 -65.334 15.666 -86.001 46.999c-24.667 36.667 -37 92.334 -37 167.001c0 70 12.333 121.667 37 155c20.667 28 49.334 42 86.001 42c36 0 64.333 -13.667 85 -41c25.333 -33.333 38 -85.333 38 -156
c0 -72 -13 -127 -39 -165c-22 -32.667 -50 -49 -84 -49zM493 27.999c23.333 0 40.834 13.5 52.501 40.5s17.5 70.833 17.5 131.5c0 62 -7.33301 105 -22 129c-10.667 18 -26.667 27 -48 27c-22.667 0 -39.334 -9 -50.001 -27c-13.333 -23.333 -20 -66.333 -20 -129
c0 -62 5.33301 -106.167 16 -132.5s28.667 -39.5 54 -39.5zM143.001 405.999c-36.667 0 -65.334 15.666 -86.001 46.999c-24.667 36.667 -37 92.334 -37 167.001c0 70 12.333 121.667 37 155c20.667 28 49.334 42 86.001 42c36 0 64.333 -13.667 85 -41
c25.333 -33.333 38 -85.333 38 -156c0 -72 -13 -127 -39 -165c-22 -32.667 -50 -49 -84 -49zM143.001 447.998c23.333 0 40.834 13.5 52.501 40.5s17.5 70.833 17.5 131.5c0 62 -7.33301 105 -22 129c-10.667 18 -26.667 27 -48 27c-22.667 0 -39.334 -9 -50.001 -27
c-13.333 -23.333 -20 -66.333 -20 -129c0 -62 5.33301 -106.167 16 -132.5s28.667 -39.5 54 -39.5z" />
    <glyph glyph-name="ampersand" unicode="&#x26;" horiz-adv-x="583" 
d="M252 437l162.999 -215.001c12.667 50 19 107 19 171h70c0 -89.333 -13.667 -167.333 -41 -234l120 -159h-82l-71 97c-23.333 -35.333 -51.833 -62.666 -85.5 -81.999s-71.5 -29 -113.5 -29c-58 0 -107.667 22.667 -149 68s-62 99 -62 161c0 46 10 87 30 123
c23.333 41.333 62 79.666 116 114.999c-31.333 40.667 -53.666 73.334 -66.999 98.001c-18.667 35.333 -28 69.333 -28 102c0 46.667 15 85.667 45 117s68.333 47 115 47c47.333 0 85.5 -15.667 114.5 -47s43.5 -70.333 43.5 -117c0 -76 -45.667 -148 -137 -216z
M388.999 151.999l-184 250c-45.333 -36.667 -75.666 -71.667 -90.999 -105c-10 -22 -15 -49.333 -15 -82c0 -46.667 12.167 -85.667 36.5 -117s56.166 -47 95.499 -47c36.667 0 68 8.66699 94 26s47.333 42.333 64 75zM216.999 482.999
c35.333 26 60.334 51.666 75.001 76.999s22 56.333 22 93c0 28.667 -7.33301 52.334 -22 71.001s-35.334 28 -62.001 28c-24.667 0 -44.834 -9.5 -60.501 -28.5s-23.5 -42.5 -23.5 -70.5s4 -53 12 -75c10.667 -30 30.334 -61.667 59.001 -95z" />
    <glyph glyph-name="quotesingle" unicode="'" horiz-adv-x="155" 
d="M77 715l-37 0.000976562v88h75v-88c0 -38.667 -9.33301 -70.667 -28 -96c-15.333 -20.667 -31 -31 -47 -31v40c10 0 18.667 7.16699 26 21.5s11 36.166 11 65.499z" />
    <glyph glyph-name="parenleft" unicode="(" horiz-adv-x="280" 
d="M270 822c-55.333 0 -94.667 -48.332 -118 -144.999c-18 -75.333 -27 -186 -27 -332c0 -160.667 9 -279.667 27 -357c22.667 -97.333 62 -146 118 -146l-7 -48c-60 0 -108 31.667 -144 95c-28.667 51.333 -49.334 124 -62.001 218c-9.33301 70.667 -14 150 -14 238
c0 76 3.66699 143.333 11 202c12 93.333 32 166.666 60 219.999c36.667 68.667 86.334 103 149.001 103z" />
    <glyph glyph-name="parenright" unicode=")" horiz-adv-x="280" 
d="M10 822l7 48.001c62 0 111.333 -34.333 148 -103c28 -52.667 48 -125.667 60 -219c8 -62.667 12 -130.334 12 -203.001c0 -92.667 -4.33301 -172 -13 -238c-12.667 -95.333 -33 -168 -61 -218c-35.333 -63.333 -84 -95 -146 -95l-7 48c55.333 0 94.333 48.667 117 146
c18.667 79.333 28 198.333 28 357c0 96 -3.33301 174 -10 234c-8.66699 76.667 -22.667 134.667 -42 174c-22.667 46 -53.667 69 -93 69z" />
    <glyph glyph-name="asterisk" unicode="*" horiz-adv-x="366" 
d="M164 662l-7 141h52l-6 -140l118 75l25 -45l-125 -65l125 -64l-26 -45l-117 76l6 -140h-52l7 140l-118 -76l-26 45l124 64l-124 65l25 45z" />
    <glyph glyph-name="plus" unicode="+" horiz-adv-x="474" 
d="M270 618v-184h184v-65h-184v-185h-65v185h-185v65h185v184h65z" />
    <glyph glyph-name="comma" unicode="," horiz-adv-x="155" 
d="M77 0l-37 0.000976562v88h75v-88c0 -38.667 -9.33301 -70.667 -28 -96c-15.333 -20.667 -31 -31 -47 -31v40c10 0 18.667 7.16699 26 21.5s11 36.166 11 65.499z" />
    <glyph glyph-name="hyphen" unicode="-" horiz-adv-x="244" 
d="M30 342h184v-65h-184v65z" />
    <glyph glyph-name="period" unicode="." horiz-adv-x="155" 
d="M40 88h75v-88h-75v88z" />
    <glyph glyph-name="slash" unicode="/" horiz-adv-x="288" 
d="M230 803h58l-230 -803h-58z" />
    <glyph glyph-name="zero" unicode="0" 
d="M226 817c54 0 96.3301 -20.668 126.997 -62.001c25.333 -34.667 43.333 -86 54 -154c8 -51.333 12 -114.666 12 -189.999c0 -80.667 -3.66699 -145.334 -11 -194.001c-10.667 -70.667 -29 -125 -55 -163c-31.333 -45.333 -74.333 -68 -129 -68
c-53.333 0 -95.666 22.667 -126.999 68c-26 38 -44.333 92.333 -55 163c-8 53.333 -12 118 -12 194c0 78.667 4 142.334 12 191.001c10.667 66.667 29.334 117.667 56.001 153c30.667 41.333 73.334 62 128.001 62zM222.997 751.999c-46.667 0 -78.333 -31.002 -95 -93.002
c-12.667 -48 -19 -130.667 -19 -248c0 -107.333 9.83301 -194.166 29.5 -260.499s48.5 -99.5 86.5 -99.5c45.333 0 77 36 95 108c13.333 54 20 138 20 252c0 120.667 -6 203.334 -18 248.001c-16.667 62 -49.667 93 -99 93z" />
    <glyph glyph-name="one" unicode="1" 
d="M222 817h49v-757h90v-60h-257v60h92v659h-99v38z" />
    <glyph glyph-name="two" unicode="2" 
d="M400 60l0.000976562 -60h-356v46c0 54 23.667 116.333 71 187l134 184c48 73.333 72 139.333 72 198c0 35.333 -6.33301 65.333 -19 90c-16 31.333 -39.667 47 -71 47c-34.667 0 -60.834 -15 -78.501 -45s-28.834 -72.333 -33.501 -127l-75 13c0 58 14.667 108 44 150
c34.667 49.333 82.334 74 143.001 74c54.667 0 97 -20.333 127 -61c28 -38 42 -86 42 -144c0 -62.667 -24 -130 -72 -202l-136 -179c-48.667 -67.333 -73 -124.333 -73 -171h281z" />
    <glyph glyph-name="three" unicode="3" 
d="M35 176l68.999 10c3.33301 -34.667 12 -63.667 26 -87c19.333 -32 46.666 -48 81.999 -48c40.667 0 72 19 94 57c18.667 32.667 28 71.334 28 116.001c0 47.333 -13.333 87.666 -40 120.999s-61.334 50 -104.001 50h-47v65h47c38 0 69.333 15.667 94 47
c22.667 28.667 34 62 34 100c0 38.667 -8.33301 71.334 -25 98.001c-19.333 31.333 -46.333 47 -81 47c-25.333 0 -46.666 -11.167 -63.999 -33.5s-27.666 -51.5 -30.999 -87.5l-68 10c8.66699 56.667 27.5 100.167 56.5 130.5s62.833 45.5 101.5 45.5
c60.667 0 107.667 -22.667 141 -68c28.667 -38.667 43 -86 43 -142c0 -40 -10.833 -77.167 -32.5 -111.5s-47.167 -55.833 -76.5 -64.5c34 -9.33301 63.667 -33.5 89 -72.5s38 -81.833 38 -128.5c0 -64.667 -15.667 -119.334 -47 -164.001
c-37.333 -53.333 -90.333 -80 -159 -80c-47.333 0 -85 17.333 -113 52c-25.333 31.333 -43.666 77.333 -54.999 138z" />
    <glyph glyph-name="four" unicode="4" 
d="M235 803h109v-540h83v-60h-83v-203h-75v203h-237v67zM269 263v459l-171 -459h171z" />
    <glyph glyph-name="five" unicode="5" 
d="M65 803l296 -0.00195312v-60h-231v-255c15.333 12.667 30.5 22.334 45.5 29.001s33.5 10 55.5 10c56.667 0 101.334 -26.333 134.001 -79c29.333 -47.333 44 -105 44 -173c0 -77.333 -16 -143 -48 -197c-36.667 -61.333 -86.667 -92 -150 -92
c-48.667 0 -88.334 19.667 -119.001 59c-26.667 34.667 -42.667 76.334 -48 125.001l60 13c8.66699 -38.667 20.667 -69 36 -91c19.333 -27.333 43 -41 71 -41c40 0 71.333 23 94 69c19.333 39.333 29 87 29 143c0 50 -9.66699 94.667 -29 134c-21.333 43.333 -49 65 -83 65
c-25.333 0 -47 -8.33301 -65 -25c-13.333 -12 -26.333 -30.333 -39 -55l-53 7v414z" />
    <glyph glyph-name="six" unicode="6" 
d="M389 663l-66 -14.001c-10.667 39.333 -17.667 62 -21 68c-12.667 23.333 -32.334 35 -59.001 35c-48 0 -82.667 -43.333 -104 -130c-14.667 -59.333 -22 -127.666 -22 -204.999c18 19.333 34 33.666 48 42.999c22 14.667 45.667 22 71 22
c64.667 0 112.667 -25.667 144 -77c26.667 -43.333 40 -100 40 -170c0 -69.333 -14.667 -126.666 -44 -171.999c-33.333 -51.333 -79.666 -77 -138.999 -77c-69.333 0 -121 35.667 -155 107c-29.333 61.333 -44 143.333 -44 246c0 133.333 13.333 241 40 323
c34 103.333 86.333 155 157 155c45.333 0 81.333 -15.667 108 -47c22 -26 37.333 -61.667 46 -107zM239 50.999c38 0 65.666 20.333 82.999 61c12.667 30 19 69.667 19 119c0 50.667 -5.33301 90.334 -16 119.001c-16.667 44.667 -47 67 -91 67
c-23.333 0 -46.666 -9.66699 -69.999 -29c-20 -16.667 -35.667 -36.334 -47 -59.001c0 -79.333 5.66699 -139 17 -179c18.667 -66 53.667 -99 105 -99z" />
    <glyph glyph-name="seven" unicode="7" 
d="M391 802v-59l-219 -743h-77l227 737h-273v65h342z" />
    <glyph glyph-name="eight" unicode="8" 
d="M228 -14c-61.333 0 -110.001 22.002 -146.001 66.002c-32.667 40 -49 88.667 -49 146c0 44.667 12.833 88.667 38.5 132s58.167 77 97.5 101c-35.333 20.667 -64.166 49.167 -86.499 85.5s-33.5 74.166 -33.5 113.499c0 53.333 14.667 97 44 131
c32 37.333 76.667 56 134 56c56 0 99.333 -18 130 -54c27.333 -32.667 41 -75.334 41 -128.001c0 -40 -10.833 -79.333 -32.5 -118s-49.5 -67 -83.5 -85c42 -21.333 75.5 -53.333 100.5 -96s37.5 -88 37.5 -136c0 -58 -16 -107 -48 -147c-36 -44.667 -84 -67 -144 -67z
M107.999 200.002c0 -39.333 9.99902 -73.001 29.999 -101.001c22.667 -32 52.667 -48 90 -48c38.667 0 68.334 14.667 89.001 44c18.667 26.667 28 59.334 28 98.001c0 40 -10.5 78 -31.5 114s-49.833 67 -86.5 93c-34 -18.667 -62.333 -47 -85 -85s-34 -76.333 -34 -115z
M226.998 467.001c30 16.667 53.833 40.501 71.5 71.501s26.5 63.5 26.5 97.5c0 36 -7.33301 64.333 -22 85c-16.667 24 -42 36 -76 36c-36 0 -62.667 -10.5 -80 -31.5s-26 -48.5 -26 -82.5c0 -34.667 9.33301 -66.834 28 -96.501s44.667 -56.167 78 -79.5z" />
    <glyph glyph-name="nine" unicode="9" 
d="M61 138l67 13.999c10.667 -38 17.667 -60.333 21 -67c12.667 -22.667 32.334 -34 59.001 -34c57.333 0 95.333 60.333 114 181c7.33301 48 11 97.333 11 148c-18 -19.333 -34 -33.666 -48 -42.999c-22 -14.667 -45.667 -22 -71 -22c-64.667 0 -112.667 25.667 -144 77
c-26.667 43.333 -40 100 -40 170c0 69.333 14.667 127.333 44 174c33.333 53.333 79.666 80 138.999 80c69.333 0 121 -36.333 155 -109c29.333 -62.667 44 -145.667 44 -249c0 -134 -13 -240.667 -39 -320c-33.333 -101.333 -85.666 -152 -156.999 -152
c-45.333 0 -81.333 15.333 -108 46c-22.667 26 -38.334 61.333 -47.001 106zM211 750.999c-38.667 0 -66.332 -20.999 -82.999 -62.999c-12.667 -31.333 -19 -72 -19 -122c0 -50.667 5.33301 -90.334 16 -119.001c16.667 -44.667 47 -67 91 -67
c23.333 0 46.666 9.66699 69.999 29c20 16.667 35.667 36.334 47 59.001c0 79.333 -5.66699 139.666 -17 180.999c-18.667 68 -53.667 102 -105 102z" />
    <glyph glyph-name="colon" unicode=":" horiz-adv-x="155" 
d="M40 88h75v-88h-75v88zM40 572h75v-88h-75v88z" />
    <glyph glyph-name="semicolon" unicode=";" horiz-adv-x="155" 
d="M77 0l-37 0.000976562v88h75v-88c0 -38.667 -9.33301 -70.667 -28 -96c-15.333 -20.667 -31 -31 -47 -31v40c10 0 18.667 7.16699 26 21.5s11 36.166 11 65.499zM40 572.001h75v-88h-75v88z" />
    <glyph glyph-name="less" unicode="&#x3c;" horiz-adv-x="474" 
d="M20 425l407 192l27 -58l-333 -158l333 -156l-27 -59l-407 191v48z" />
    <glyph glyph-name="equal" unicode="=" horiz-adv-x="474" 
d="M20 361h434v-65h-434v65zM20 506h434v-65h-434v65z" />
    <glyph glyph-name="greater" unicode="&#x3e;" horiz-adv-x="474" 
d="M454 425v-48l-407 -191l-27 59l333 156l-333 158l27 58z" />
    <glyph glyph-name="question" unicode="?" horiz-adv-x="401" 
d="M126 88h75v-88h-75v88zM201 817c46 0 85.667 -17.3311 119 -51.998s50 -76.667 50 -126c0 -54 -14 -100.333 -42 -139l-83 -111c-29.333 -46.667 -44 -101.334 -44 -164.001v-49h-75v49c0 65.333 14 122.666 42 171.999l81.5 115c27.667 39.333 41.5 80 41.5 122
c0 32 -8.66699 59.667 -26 83s-38.666 35 -63.999 35c-34.667 0 -60.834 -15 -78.501 -45s-28.834 -72.333 -33.501 -127l-75 13c0 58 14.667 108 44 150c34.667 49.333 82.334 74 143.001 74z" />
    <glyph glyph-name="at" unicode="@" horiz-adv-x="662" 
d="M460 622l57.998 -0.000976562l-74 -322c-2.66699 -10 -4 -19.333 -4 -28c0 -23.333 8.66699 -35 26 -35c26.667 0 50 13.333 70 40c30.667 40.667 46 106 46 196c0 82 -22.167 149.833 -66.5 203.5s-98.166 80.5 -161.499 80.5c-80.667 0 -146.5 -35.333 -197.5 -106
s-76.5 -158.334 -76.5 -263.001c0 -97.333 27.667 -178.666 83 -243.999c52 -61.333 113 -92 183 -92c97.333 0 168 40 212 120h60c-26 -64.667 -66 -111.667 -120 -141c-47.333 -26 -104.333 -39 -171 -39c-81.333 0 -153 37.333 -215 112c-64.667 78 -97 172.667 -97 284
c0 132.667 34.667 239 104 319c64 73.333 142.333 110 235 110c80 0 148 -29.667 204 -89c59.333 -62.667 89 -143.667 89 -243c0 -98 -19.333 -176 -58 -234c-35.333 -52.667 -78.666 -79 -129.999 -79c-14 0 -28.833 6 -44.5 18s-26.167 27.667 -31.5 47
c-32.667 -43.333 -69 -65 -109 -65c-39.333 0 -71 16.833 -95 50.5s-36 72.834 -36 117.501c0 76 17 142 51 198c38 62.667 87.667 94 149 94c26.667 0 50 -11 70 -33c9.33301 -10.667 19 -25.667 29 -45zM393.998 350.999l17.998 71.998c3.33301 16.667 5 31.334 5 44.001
c0 30.667 -7 55.834 -21 75.501s-31.333 29.5 -52 29.5c-34.667 0 -65 -24.5 -91 -73.5s-39 -98.833 -39 -149.5c0 -29.333 6.33301 -55.333 19 -78s30.334 -34 53.001 -34c24.667 0 46.334 9.5 65.001 28.5s33 47.5 43 85.5z" />
    <glyph glyph-name="A" unicode="A" horiz-adv-x="430" 
d="M302 244h-174l-53 -244h-75l173 803h84l173 -803h-75zM140 309h150l-75 395z" />
    <glyph glyph-name="B" unicode="B" 
d="M40 0v803h180c60.667 0 108 -20.333 142 -61c30 -36 45 -81 45 -135c0 -40.667 -10 -78 -30 -112s-44.667 -55.333 -74 -64c33.333 -9.33301 62 -33.5 86 -72.5s36 -81.833 36 -128.5c0 -62.667 -16.333 -115 -49 -157c-38 -48.667 -90.667 -73 -158 -73h-178zM115 738
v-278h91c38 0 69.333 15.667 94 47c22.667 28.667 34 62 34 100c0 36.667 -9.66699 67 -29 91c-21.333 26.667 -50.333 40 -87 40h-103zM115 395l0.000976562 -329.998h105c42 0 75 16.667 99 50c20.667 29.333 31 65.666 31 108.999c0 47.333 -13.333 87.666 -40 120.999
s-61.334 50 -104.001 50h-91z" />
    <glyph glyph-name="C" unicode="C" horiz-adv-x="446" 
d="M412 580l-65 -7.99707c0 46.667 -7.33301 85.667 -22 117c-19.333 42 -49 63 -89 63c-38.667 0 -68 -23 -88 -69c-24 -54.667 -36 -146.334 -36 -275.001c0 -60.667 2.83301 -116.5 8.5 -167.5s17.167 -93.167 34.5 -126.5c21.333 -42 50.666 -63 87.999 -63
c44.667 0 76 24.333 94 73c12.667 34 19 81.667 19 143l65 -8c0 -72.667 -11.667 -132.667 -35 -180c-30.667 -62 -78.334 -93 -143.001 -93c-56 0 -100.667 22.333 -134 67c-28 37.333 -48.333 91 -61 161c-10 55.333 -15 119.666 -15 192.999c0 115.333 13 207 39 275
c34.667 90 90.334 135 167.001 135c58.667 0 103.334 -25.333 134.001 -76c26 -42.667 39 -96.334 39 -161.001z" />
    <glyph glyph-name="D" unicode="D" horiz-adv-x="469" 
d="M40 0v803h171c75.333 0 132.333 -38.333 171 -115c35.333 -69.333 53 -163.333 53 -282c0 -134.667 -19.667 -235 -59 -301c-42 -70 -107.667 -105 -197 -105h-139zM115 738v-672.999h44c68 0 118.333 29.667 151 89c30.667 56 46 139.333 46 250
c0 111.333 -13 193.666 -39 246.999c-28 58 -73.333 87 -136 87h-66z" />
    <glyph glyph-name="E" unicode="E" horiz-adv-x="396" 
d="M40 803h322v-65h-247v-278h188v-65h-188v-330h261v-65h-336v803z" />
    <glyph glyph-name="F" unicode="F" horiz-adv-x="366" 
d="M40 803h321v-65h-246v-278h188v-65h-188v-395h-75v803z" />
    <glyph glyph-name="G" unicode="G" horiz-adv-x="480" 
d="M428 374v-373.997h-46l-26 51c-18.667 -21.333 -34.334 -36.333 -47.001 -45c-19.333 -13.333 -39.666 -20 -60.999 -20c-76.667 0 -132.667 38 -168 114c-31.333 67.333 -47 164 -47 290c0 129.333 16 230.666 48 303.999c36 82 89.667 123 161 123
c64.667 0 113 -25 145 -75c27.333 -42.667 41 -101.334 41 -176.001l-72 -8c0 60.667 -9.66699 108.167 -29 142.5s-48 51.5 -86 51.5c-40 0 -71.5 -32 -94.5 -96s-34.5 -152.667 -34.5 -266c0 -106.667 10 -188 30 -244c22.667 -63.333 58.667 -95 108 -95
c22 0 42.333 9.66699 61 29c14.667 15.333 29.667 38.666 45 69.999v159h-112v65h184z" />
    <glyph glyph-name="H" unicode="H" horiz-adv-x="473" 
d="M40 0v803h75v-342h234v342h75v-803h-75v396h-234v-396h-75z" />
    <glyph glyph-name="I" unicode="I" horiz-adv-x="155" 
d="M40 803h75v-803h-75v803z" />
    <glyph glyph-name="J" unicode="J" horiz-adv-x="269" 
d="M154 803l75 -0.000976562v-635c0 -50 -13.833 -91.833 -41.5 -125.5s-61.5 -50.5 -101.5 -50.5h-76v66h62c22.667 0 42 10.333 58 31s24 46.334 24 77.001v637z" />
    <glyph glyph-name="K" unicode="K" horiz-adv-x="431" 
d="M40 803h75v-412l221 412h78l-157 -281l174 -522h-79l-138 443l-99 -180v-263h-75v803z" />
    <glyph glyph-name="L" unicode="L" horiz-adv-x="368" 
d="M40 803h75v-738h248v-65h-323v803z" />
    <glyph glyph-name="M" unicode="M" horiz-adv-x="592" 
d="M40 803h130l127 -568l123 568h130v-803h-75v702l-158 -702h-40l-162 689v-689h-75v803z" />
    <glyph glyph-name="N" unicode="N" horiz-adv-x="484" 
d="M40 803h114l215 -595v595h75v-803h-75l-254 704v-704h-75v803z" />
    <glyph glyph-name="O" unicode="O" horiz-adv-x="495" 
d="M250 -14c-82.667 0 -141.332 43.667 -175.999 131c-26.667 68 -40 166.333 -40 295c0 124.667 12.667 218 38 280c34 83.333 93 125 177 125c83.333 0 141.666 -41.333 174.999 -124c25.333 -62.667 38 -156.334 38 -281.001c0 -84.667 -4.66699 -153.667 -14 -207
c-12 -69.333 -32.333 -121.666 -61 -156.999c-33.333 -41.333 -79 -62 -137 -62zM250.002 51c55.333 0 92.666 36 111.999 108c14 52 21 136.333 21 253c0 137.333 -11.167 228.333 -33.5 273s-55.833 67 -100.5 67c-54 0 -91.667 -35.667 -113 -107
c-15.333 -52 -23 -129.667 -23 -233c0 -80 2.83301 -144.333 8.5 -193s17.834 -87.667 36.501 -117c21.333 -34 52 -51 92 -51z" />
    <glyph glyph-name="P" unicode="P" horiz-adv-x="432" 
d="M40 0v803h184c59.333 0 106.333 -22.667 141 -68c31.333 -41.333 47 -93.333 47 -156c0 -62 -16.667 -112.333 -50 -151c-36.667 -42.667 -87 -64 -151 -64h-96v-364h-75zM115 738l-0.000976562 -309h84c46.667 0 81.334 14.333 104.001 43c20 25.333 30 61 30 107
c0 48.667 -9.66699 86.667 -29 114c-21.333 30 -54 45 -98 45h-91z" />
    <glyph glyph-name="Q" unicode="Q" horiz-adv-x="495" 
d="M462 -133l0.000976562 -65.001h-79c-52 0 -93.833 13.833 -125.5 41.5s-47.5 63.834 -47.5 108.501v37c-67.333 12.667 -115 61.334 -143 146.001c-22 66.667 -33 159 -33 277c0 124.667 12.667 218 38 280c34 83.333 93 125 177 125
c83.333 0 141.666 -41.333 174.999 -124c25.333 -62.667 38 -156.334 38 -281.001c0 -120.667 -10.333 -213 -31 -277c-27.333 -85.333 -75 -134 -143 -146v-46c0 -21.333 12 -39.333 36 -54s52.667 -22 86 -22h52zM250.001 50.999c55.333 0 92.666 36 111.999 108
c14 52 21 136.333 21 253c0 137.333 -11.167 228.333 -33.5 273s-55.833 67 -100.5 67c-54 0 -91.667 -35.667 -113 -107c-15.333 -52 -23 -129.667 -23 -233c0 -80 2.83301 -144.333 8.5 -193s17.834 -87.667 36.501 -117c21.333 -34 52 -51 92 -51z" />
    <glyph glyph-name="R" unicode="R" horiz-adv-x="432" 
d="M40 0v803.001h188c56 0 101 -20.667 135 -62c32 -38.667 48 -85.334 48 -140.001c0 -43.333 -9 -83 -27 -119c-20 -40 -48.333 -68.667 -85 -86l112 -396h-79l-101 384h-116v-384h-75zM115 738.001v-289h94c39.333 0 69.666 14.333 90.999 43s32 65 32 109
c0 41.333 -9.66699 74.5 -29 99.5s-48.666 37.5 -87.999 37.5h-100z" />
    <glyph glyph-name="S" unicode="S" horiz-adv-x="456" 
d="M401 607l-75.002 -10c0 47.333 -9.66699 85 -29 113s-45 42 -77 42c-28.667 0 -51.667 -11 -69 -33s-26 -53.667 -26 -95c0 -50 25.333 -96.333 76 -139l143 -112c51.333 -50 77 -108 77 -174c0 -68.667 -19.333 -122 -58 -160c-36 -35.333 -82.333 -53 -139 -53
c-55.333 0 -99.666 19.333 -132.999 58c-35.333 41.333 -53 98.666 -53 171.999l79 8c0 -48.667 10.833 -89.667 32.5 -123s48.834 -50 81.501 -50c34 0 61 10.667 81 32c22.667 24 34 59.667 34 107c0 50.667 -25.333 97.667 -76 141l-143 115
c-51.333 51.333 -77 111.333 -77 180c0 58.667 16.833 105.167 50.5 139.5s74.5 51.5 122.5 51.5c52.667 0 94.667 -16.667 126 -50c34.667 -37.333 52 -90.666 52 -159.999z" />
    <glyph glyph-name="T" unicode="T" horiz-adv-x="409" 
d="M10 803h389v-65h-156v-738h-75v738h-158v65z" />
    <glyph glyph-name="U" unicode="U" horiz-adv-x="462" 
d="M38 803h75v-618c0 -40.667 11.167 -73.167 33.5 -97.5s49.833 -36.5 82.5 -36.5c34 0 61.167 10.833 81.5 32.5s30.5 55.5 30.5 101.5v618h75v-618c0 -61.333 -18.167 -109.833 -54.5 -145.5s-81.5 -53.5 -135.5 -53.5c-52 0 -95.667 17.667 -131 53
c-38 38 -57 86.667 -57 146v618z" />
    <glyph glyph-name="V" unicode="V" horiz-adv-x="423" 
d="M0 803h81l134 -633l133 633h73l-176 -803h-60z" />
    <glyph glyph-name="W" unicode="W" horiz-adv-x="621" 
d="M0 803h75l102 -569l109 569h60l105 -569l95 569h75l-140 -803h-60l-104 579l-112 -579h-60z" />
    <glyph glyph-name="X" unicode="X" horiz-adv-x="427" 
d="M14 803h72l121 -294l116 294h75l-147 -368l164 -435h-75l-133 346l-122 -346h-75l149 435z" />
    <glyph glyph-name="Y" unicode="Y" horiz-adv-x="420" 
d="M0 803h75l132 -381l138 381h75l-176 -469v-334h-75v334z" />
    <glyph glyph-name="Z" unicode="Z" horiz-adv-x="403" 
d="M45 803h332v-65l-276 -673h276v-65h-362v53l283 685h-253v65z" />
    <glyph glyph-name="bracketleft" unicode="[" horiz-adv-x="265" 
d="M43 -198v1068h202v-48h-120v-972h120v-48h-202z" />
    <glyph glyph-name="backslash" unicode="\" horiz-adv-x="288" 
d="M58 803l230 -803h-58l-230 803h58z" />
    <glyph glyph-name="bracketright" unicode="]" horiz-adv-x="265" 
d="M212 -197h-202v48h120v971h-120v48h202v-1067z" />
    <glyph glyph-name="asciicircum" unicode="^" horiz-adv-x="453" 
d="M249 572l192 -361l-58 -27l-158 304l-156 -304l-59 27l191 361h48z" />
    <glyph glyph-name="underscore" unicode="_" horiz-adv-x="552" 
d="M0 -138h552v-60h-552v60z" />
    <glyph glyph-name="grave" unicode="`" horiz-adv-x="155" 
d="M115 817v-40.001c-10 0 -18.667 -7.16699 -26 -21.5s-11 -36.166 -11 -65.499h37v-88h-75v88c0 38.667 9.33301 70.667 28 96c15.333 20.667 31 31 47 31z" />
    <glyph glyph-name="a" unicode="a" horiz-adv-x="378" 
d="M341 423l-0.000976562 -423h-70v52c-13.333 -19.333 -29.666 -34.166 -48.999 -44.499s-39.333 -15.5 -60 -15.5c-36.667 0 -68 11.667 -94 35c-28.667 26 -43 59 -43 99c0 68.667 30.333 124 91 166l155 96c0 88 -26 132 -78 132c-22.667 0 -42.834 -10.667 -60.501 -32
s-26.5 -48.333 -26.5 -81l-66 11c5.33301 47.333 22.5 86.166 51.5 116.499s64.167 45.5 105.5 45.5c40.667 0 74.834 -14.833 102.501 -44.5s41.5 -67.167 41.5 -112.5zM270.999 118v201.999c-42.667 -20.667 -79.334 -45 -110.001 -73c-41.333 -38 -62 -75.333 -62 -112
c0 -29.333 6.33301 -50.5 19 -63.5s30.334 -19.5 53.001 -19.5c20.667 0 40.5 5.83301 59.5 17.5s32.5 27.834 40.5 48.501z" />
    <glyph glyph-name="b" unicode="b" horiz-adv-x="397" 
d="M36 0l-0.000976562 802.999h70v-274c18 18 34.833 31 50.5 39s33.834 12 54.501 12c50 0 89.333 -31 118 -93c26 -56 39 -122.667 39 -200s-11 -142.666 -33 -195.999c-27.333 -66 -67.333 -99 -120 -99c-20 0 -38.667 5.16699 -56 15.5s-35 25.5 -53 45.5v-53h-70z
M105.999 448.999v-323.999c14 -24.667 29.5 -43 46.5 -55s32.833 -18 47.5 -18c34 0 58.667 24.667 74 74c12.667 40 19 93 19 159c0 67.333 -7 120.666 -21 159.999c-18 50 -46.333 75 -85 75c-28.667 0 -55.667 -23.667 -81 -71z" />
    <glyph glyph-name="c" unicode="c" horiz-adv-x="364" 
d="M334 420l-65.001 -8.00293c-4 42.667 -11.167 71.334 -21.5 86.001s-28.5 22 -54.5 22c-28.667 0 -51.5 -19.667 -68.5 -59s-25.5 -96.333 -25.5 -171c0 -70.667 7.83301 -128 23.5 -172s39.834 -66 72.501 -66c30 0 52 12.667 66 38c12 21.333 18 51.333 18 90l65 -8
c0 -45.333 -12.667 -85.666 -38 -120.999c-28 -39.333 -64 -59 -108 -59c-60.667 0 -104.667 29.667 -132 89c-22 48 -33 116 -33 204c0 88.667 11.333 157.334 34 206.001c28 59.333 72.667 89 134 89c34 0 62.667 -10.333 86 -31c31.333 -28 47 -71 47 -129z" />
    <glyph glyph-name="d" unicode="d" horiz-adv-x="397" 
d="M285 803l70 0.000976562v-803h-70v53c-18.667 -20 -36.167 -35.167 -52.5 -45.5s-35.166 -15.5 -56.499 -15.5c-53.333 0 -93.333 31.333 -120 94c-22 52 -33 122 -33 210c0 79.333 12.333 144.666 37 195.999c28 58.667 67.667 88 119 88c20.667 0 39.167 -5 55.5 -15
s33.166 -25 50.499 -45v283zM285 125.001l-0.000976562 323.999c-25.333 47.333 -52 71 -80 71c-39.333 0 -67.666 -22 -84.999 -66c-14.667 -36.667 -22 -87.667 -22 -153c0 -67.333 6.33301 -122.666 19 -165.999c16 -55.333 41 -83 75 -83c14 0 29.5 6 46.5 18
s32.5 30.333 46.5 55z" />
    <glyph glyph-name="e" unicode="e" horiz-adv-x="378" 
d="M349 280l-251 0.000976562c0 -68.667 8.5 -123.834 25.5 -165.501s43.833 -62.5 80.5 -62.5c18 0 33.667 6 47 18c18 16.667 30.667 44 38 82l60 -7c-6.66699 -54.667 -25.667 -95 -57 -121c-25.333 -21.333 -57.666 -32 -96.999 -32
c-52.667 0 -92.834 25.333 -120.501 76s-41.5 123 -41.5 217c0 97.333 13.833 170.833 41.5 220.5s67.5 74.5 119.5 74.5c50 0 87.667 -22.333 113 -67c28 -49.333 42 -127 42 -233zM98 340.001h184c0 59.333 -7.83301 104.166 -23.5 134.499s-37.167 45.5 -64.5 45.5
c-28 0 -51 -16.167 -69 -48.5s-27 -76.166 -27 -131.499z" />
    <glyph glyph-name="f" unicode="f" horiz-adv-x="250" 
d="M82 0v512h-72v60h72v118c0 35.333 10.333 65.333 31 90s46 37 76 37h56v-60h-44c-13.333 0 -24.833 -6.16699 -34.5 -18.5s-14.5 -27.5 -14.5 -45.5v-121h87v-60h-87v-512h-70z" />
    <glyph glyph-name="g" unicode="g" horiz-adv-x="382" 
d="M372 580l-0.000976562 -60.0029c-22.667 0 -38.167 -1.33301 -46.5 -4s-17.166 -9.33398 -26.499 -20.001c14.667 -39.333 22 -78.666 22 -117.999c0 -58.667 -11.667 -107.334 -35 -146.001c-27.333 -45.333 -66.666 -68 -117.999 -68c-16 0 -34 2 -54 6
c-21.333 -19.333 -32 -33.666 -32 -42.999c0 -19.333 24.333 -33.666 73 -42.999c70.667 -13.333 115.667 -24.666 135 -33.999c49.333 -23.333 74 -61 74 -113c0 -39.333 -17.333 -73 -52 -101s-76.667 -42 -126 -42c-56 0 -101.667 12.833 -137 38.5s-53 57.5 -53 95.5
c0 24 7.66699 45.667 23 65c12 14.667 30.667 29.667 56 45c-17.333 7.33301 -30.5 16.833 -39.5 28.5s-13.5 24.834 -13.5 39.501c0 17.333 4.66699 34.666 14 51.999s22.333 32.333 39 45c-19.333 22 -33 47 -41 75s-12 60 -12 96c0 56 14 104.333 42 145
s64.333 61 109 61c17.333 0 34 -3.16699 50 -9.5s32.333 -17.166 49 -32.499c15.333 16.667 26.666 27 33.999 31c13.333 7.33301 35.333 11 66 11zM172.999 221.997c31.333 0 53.333 18.668 66 56.001c8.66699 25.333 13 59 13 101c0 49.333 -6.66699 85.166 -20 107.499
s-33 33.5 -59 33.5c-26.667 0 -47.5 -12.833 -62.5 -38.5s-22.5 -62.167 -22.5 -109.5c0 -40.667 5.33301 -73.667 16 -99c14.667 -34 37.667 -51 69 -51zM146.999 24.998c-23.333 -10 -42 -21.667 -56 -35c-20 -18.667 -30 -38.667 -30 -60c0 -23.333 11.833 -43 35.5 -59
s52.834 -24 87.501 -24c34 0 62.667 9 86 27s35 40 35 66c0 36.667 -27 60.667 -81 72c-36.667 6 -62.334 10.333 -77.001 13z" />
    <glyph glyph-name="h" unicode="h" horiz-adv-x="381" 
d="M36 803h70v-292c22.667 19.333 42.334 34 59.001 44c28.667 16.667 55.667 25 81 25s48.666 -9.16699 69.999 -27.5s32 -42.166 32 -71.499v-481h-70v442c0 25.333 -5.83301 44.666 -17.5 57.999s-26.167 20 -43.5 20c-19.333 0 -40.333 -8.66699 -63 -26
s-38.667 -36 -48 -56v-438h-70v803z" />
    <glyph glyph-name="i" unicode="i" horiz-adv-x="150" 
d="M40 803h70v-79h-70v79zM40 572h70v-572h-70v572z" />
    <glyph glyph-name="j" unicode="j" horiz-adv-x="150" 
d="M39 803h70v-79h-70v79zM39 572l70 0.000976562v-665c0 -28.667 -9.33301 -53.334 -28 -74.001s-40.667 -31 -66 -31h-41v60c20 0 35.833 4.83301 47.5 14.5s17.5 22.5 17.5 38.5v657z" />
    <glyph glyph-name="k" unicode="k" horiz-adv-x="354" 
d="M106 0h-70v803h70v-511l149 280h72l-111 -193l127 -379h-70l-94 317l-73 -130v-187z" />
    <glyph glyph-name="l" unicode="l" horiz-adv-x="150" 
d="M40 803h70v-803h-70v803z" />
    <glyph glyph-name="m" unicode="m" horiz-adv-x="599" 
d="M36 0l0.00390625 572.001h70v-65c12 22.667 29.667 40.5 53 53.5s47.666 19.5 72.999 19.5c46 0 78.667 -22.667 98 -68c11.333 19.333 29.5 35.5 54.5 48.5s51.5 19.5 79.5 19.5c25.333 0 48.666 -9.16699 69.999 -27.5s32 -42.166 32 -71.499v-481h-70v442
c0 25.333 -5.83301 44.666 -17.5 57.999s-26.167 20 -43.5 20c-18.667 0 -37.334 -8.33301 -56.001 -25s-33 -35.667 -43 -57v-438h-70v442c0 25.333 -5.83301 44.666 -17.5 57.999s-26.167 20 -43.5 20c-18.667 0 -37.334 -8.33301 -56.001 -25s-33 -35.667 -43 -57v-438
h-70z" />
    <glyph glyph-name="n" unicode="n" horiz-adv-x="381" 
d="M36 0v572h70v-61c22.667 19.333 42.334 34 59.001 44c28.667 16.667 55.667 25 81 25s48.666 -9.16699 69.999 -27.5s32 -42.166 32 -71.499v-481h-70v442c0 25.333 -5.83301 44.666 -17.5 57.999s-26.167 20 -43.5 20c-19.333 0 -40.333 -8.66699 -63 -26
s-38.667 -36 -48 -56v-438h-70z" />
    <glyph glyph-name="o" unicode="o" horiz-adv-x="415" 
d="M207 -8c-51.333 0 -92 22.667 -122 68c-34.667 52 -52 130.667 -52 236c0 98 17.667 171.667 53 221c30 42 70.333 63 121 63c50 0 90 -20.333 120 -61c36 -48.667 54 -123 54 -223c0 -102.667 -18.333 -181 -55 -235c-31.333 -46 -71 -69 -119 -69zM207 52
c33.333 0 58.167 19.5 74.5 58.5s24.5 100.833 24.5 185.5c0 88 -10.333 149.667 -31 185c-15.333 26 -38 39 -68 39c-31.333 0 -54.666 -13.333 -69.999 -40c-19.333 -34.667 -29 -96 -29 -184c0 -86.667 7.66699 -149 23 -187s40.666 -57 75.999 -57z" />
    <glyph glyph-name="p" unicode="p" horiz-adv-x="397" 
d="M36 572l70 0.000976562v-52c17.333 19.333 34 33.666 50 42.999c18.667 11.333 38.334 17 59.001 17c52.667 0 92.667 -32.667 120 -98c22 -53.333 33 -119 33 -197c0 -79.333 -12.333 -146 -37 -200c-28.667 -62 -68.334 -93 -119.001 -93
c-20.667 0 -40.5 5.5 -59.5 16.5s-34.5 25.5 -46.5 43.5v-250h-70v770zM106 123.001c25.333 -47.333 52 -71.001 80 -71.001c38.667 0 67 24.667 85 74c14.667 40.667 22 94.334 22 161.001c0 67.333 -6 120 -18 158c-16 50 -41 75 -75 75c-14 0 -29.667 -6.16699 -47 -18.5
s-33 -30.5 -47 -54.5v-324z" />
    <glyph glyph-name="q" unicode="q" horiz-adv-x="397" 
d="M355 572l-0.000976562 -770h-70v241c-23.333 -17.333 -36.666 -27 -39.999 -29c-22 -14.667 -44 -22 -66 -22c-50 0 -89.333 31 -118 93c-25.333 54.667 -38 121.334 -38 200.001c0 77.333 11 142.666 33 195.999c27.333 66 67.333 99 120 99
c20 0 39.333 -5.66699 58 -17c16 -9.33301 33 -24 51 -44v53h70zM284.999 123v324c-14 24.667 -29.5 43 -46.5 55s-32.833 18 -47.5 18c-34 0 -58.667 -24.667 -74 -74c-12.667 -40 -19 -93 -19 -159c0 -68 7 -121.333 21 -160c18 -50 46.667 -75 86 -75
c28 0 54.667 23.667 80 71z" />
    <glyph glyph-name="r" unicode="r" horiz-adv-x="260" 
d="M36 0l0.000976562 572.001h70v-77c13.333 24 31 43.333 53 58c26.667 18 56 27 88 27v-70c-34.667 0 -64.334 -9.83301 -89.001 -29.5s-42 -45.834 -52 -78.501v-402h-70z" />
    <glyph glyph-name="s" unicode="s" horiz-adv-x="366" 
d="M27 138l59.999 13.001c4.66699 -26 15.334 -48.333 32.001 -67c19.333 -21.333 41.666 -32 66.999 -32c21.333 0 40 7.33301 56 22s24 33.667 24 57c0 43.333 -19.333 80.666 -58 111.999l-109 77c-39.333 34 -59 75.667 -59 125c0 43.333 12.667 76.666 38 99.999
s57.333 35 96 35c40.667 0 74.334 -13.667 101.001 -41c24.667 -25.333 38.667 -55.666 42 -90.999l-66 -15c-8 58 -33.667 87 -77 87c-20 0 -36.5 -5.83301 -49.5 -17.5s-19.5 -27.5 -19.5 -47.5c0 -36 19.667 -68.667 59 -98l111 -80c40.667 -38 61 -83.333 61 -136
c0 -34 -12 -65.667 -36 -95c-29.333 -36 -67 -54 -113 -54s-84.167 14.5 -114.5 43.5s-45.5 63.167 -45.5 102.5z" />
    <glyph glyph-name="t" unicode="t" horiz-adv-x="258" 
d="M76 777l69.999 -0.000976562v-205h94v-60h-94v-398c0 -18 4.83301 -32.833 14.5 -44.5s22.834 -17.5 39.501 -17.5h40v-60h-69c-27.333 0 -50 10.333 -68 31s-27 46.334 -27 77.001v412h-66v60h66v205z" />
    <glyph glyph-name="u" unicode="u" horiz-adv-x="381" 
d="M345 572l0.000976562 -572h-70v61c-22.667 -19.333 -42.334 -34 -59.001 -44c-28.667 -16.667 -55.667 -25 -81 -25s-48 8.66699 -68 26c-22.667 19.333 -34 43.666 -34 72.999v481h70v-442c0 -25.333 5.83301 -44.666 17.5 -57.999s26.167 -20 43.5 -20
c19.333 0 40.333 8.66699 63 26s38.667 36 48 56v438h70z" />
    <glyph glyph-name="v" unicode="v" horiz-adv-x="349" 
d="M130 0l-120 572h65l101 -502l98 502h65l-123 -572h-86z" />
    <glyph glyph-name="w" unicode="w" horiz-adv-x="537" 
d="M462 572h65l-120 -572h-49l-90 416l-89 -416h-49l-120 572h65l83 -411l79 411h63l79 -411z" />
    <glyph glyph-name="x" unicode="x" horiz-adv-x="356" 
d="M29 572h65l84 -209l84 209h65l-111 -266l130 -306h-70l-98 239l-98 -239h-70l130 306z" />
    <glyph glyph-name="y" unicode="y" horiz-adv-x="352" 
d="M10 572l70 -0.000976562l104 -444l88 444h70l-125 -572c-12 -53.333 -28.667 -97.666 -50 -132.999c-29.333 -48.667 -64.666 -73 -105.999 -73h-45v60h44c21.333 0 40.333 13.667 57 41c13.333 22 22.666 46.333 27.999 73l6 32z" />
    <glyph glyph-name="z" unicode="z" horiz-adv-x="347" 
d="M324 572v-41l-222 -471h222v-60h-296v40l222 472h-199v60h273z" />
    <glyph glyph-name="braceleft" unicode="{" horiz-adv-x="302" 
d="M10 312l0.000976562 64.9971h28c28.667 0 47.667 11.333 57 34c6.66699 16 10 43.667 10 83v226c0 48.667 17 85.834 51 111.501s77 38.5 129 38.5l7 -48c-32.667 0 -58.667 -9.33301 -78 -28c-22 -21.333 -33 -53 -33 -95v-236c0 -25.333 -5.66699 -48.666 -17 -69.999
c-14 -26.667 -33.667 -42.667 -59 -48c24 -11.333 42.667 -28.166 56 -50.499s20 -45.166 20 -68.499v-261c0 -42.667 10.667 -74.334 32 -95.001c19.333 -18.667 45.666 -28 78.999 -28l-7 -48c-52.667 0 -95 12 -127 36c-35.333 26.667 -53 64.667 -53 114v249
c0 51.333 -5.33301 84 -16 98s-27.667 21 -51 21h-28z" />
    <glyph glyph-name="bar" unicode="|" horiz-adv-x="150" 
d="M40 803h70v-1001h-70v1001z" />
    <glyph glyph-name="braceright" unicode="}" horiz-adv-x="302" 
d="M292 377v-65h-28c-28.667 0 -47.667 -11.667 -57 -35c-6.66699 -16.667 -10 -44.667 -10 -84v-249c0 -48.667 -17.667 -86.334 -53 -113.001c-32.667 -24.667 -75 -37 -127 -37l-7 48c32.667 0 58.667 9.33301 78 28c22 21.333 33 53 33 95v261
c0 22.667 6.66699 45.334 20 68.001s32 39.667 56 51c-24.667 5.33301 -43.5 20 -56.5 44s-19.5 48.667 -19.5 74v236c0 42.667 -10.167 73.834 -30.5 93.501s-47.166 29.5 -80.499 29.5l7 48c52.667 0 95 -12 127 -36c35.333 -26.667 53 -64.667 53 -114v-226
c0 -40.667 3 -68.334 9 -83.001c9.33301 -22.667 28.666 -34 57.999 -34h28z" />
    <glyph glyph-name="asciitilde" unicode="~" horiz-adv-x="558" 
d="M78 356l-48.001 6.99902c0 40 13.667 74 41 102s61 42 101 42c30.667 0 68 -12.5 112 -37.5s75 -37.5 93 -37.5c28.667 0 53 7.33301 73 22s30 32.334 30 53.001l48 -7c0 -40 -14.667 -74 -44 -102s-64.666 -42 -105.999 -42c-26.667 0 -55.667 8 -87 24
c-67.333 34.667 -107 52 -119 52c-26 0 -48.167 -7.5 -66.5 -22.5s-27.5 -32.833 -27.5 -53.5z" />
    <glyph glyph-name="nonbreakingspace" unicode="&#xa0;" horiz-adv-x="500" 
 />
    <glyph glyph-name="exclamdown" unicode="&#xa1;" horiz-adv-x="155" 
d="M39 803h75v-88h-75v88zM114 0h-75v627h75v-627z" />
    <glyph glyph-name="cent" unicode="&#xa2;" horiz-adv-x="368" 
d="M233 642l47 -0.00292969l-18 -77c20.667 -11.333 37 -27.666 49 -48.999c15.333 -26.667 23 -58.667 23 -96l-65 -8c-4 43.333 -11.333 72 -22 86l-99 -423c14 -15.333 29.667 -23 47 -23c30 0 52 12.667 66 38c12 21.333 18 51.333 18 90l65 -8
c0 -45.333 -12.667 -85.666 -38 -120.999c-28 -39.333 -64 -59 -108 -59c-24.667 0 -46.667 5 -66 15l-17 -72h-47l24 104c-20.667 24.667 -35.667 58.5 -45 101.5s-14 91.167 -14 144.5c0 88.667 11.333 157.334 34 206.001c28 59.333 72.667 89 134 89l18 -1zM99 289.997
c0 -28.667 1.33301 -55.667 4 -81s7 -48.333 13 -69l89 380h-12c-28.667 0 -51.5 -19.667 -68.5 -59s-25.5 -96.333 -25.5 -171z" />
    <glyph glyph-name="currency" unicode="&#xa4;" horiz-adv-x="517" 
d="M260 128c50 0 92.667 17.667 128 53s53 78 53 128s-17.667 92.667 -53 128s-78 53 -128 53s-92.667 -17.667 -128 -53s-53 -78 -53 -128s17.667 -92.667 53 -128s78 -53 128 -53zM503 104l-41.0029 -40.001l-57 57c-20.667 -16 -43.167 -28.333 -67.5 -37
s-50.166 -13 -77.499 -13c-55.333 0 -104 16.667 -146 50l-57 -57l-40 41l56 57c-15.333 20 -27.666 42.833 -36.999 68.5s-14 51.834 -14 78.501c0 55.333 16.667 104 50 146l-57 57l41 40l57 -56c20 15.333 42.833 27.666 68.5 36.999s51.834 14 78.501 14
c26 0 50.833 -3.83301 74.5 -11.5s45.5 -19.167 65.5 -34.5l58 58l40 -41l-56 -56c37.333 -44 56 -95 56 -153c0 -55.333 -17.333 -104.666 -52 -147.999z" />
    <glyph glyph-name="yen" unicode="&#xa5;" horiz-adv-x="440" 
d="M179 0v334l-15 41h-154v65h130l-24 67h-106v65h83l-83 231h75l131 -363l139 363h75l-87 -231h87v-65h-112l-25 -67h137v-65h-161l-15 -41v-334h-75z" />
    <glyph glyph-name="brokenbar" unicode="&#xa6;" horiz-adv-x="150" 
d="M110 -198h-70v442h70v-442zM40 803h70v-442h-70v442z" />
    <glyph glyph-name="section" unicode="&#xa7;" horiz-adv-x="409" 
d="M349 685l-66.002 -14.998c-8 58 -33.667 87 -77 87c-20 0 -36.5 -5.83301 -49.5 -17.5s-19.5 -27.5 -19.5 -47.5c0 -36 19.667 -68.667 59 -98l111 -80c40.667 -38 61 -83.333 61 -136c0 -21.333 -6.33301 -44.333 -19 -69s-30.667 -44.334 -54 -59.001
c12.667 -15.333 22.667 -32.5 30 -51.5s11 -40.167 11 -63.5c0 -34 -12 -65.667 -36 -95c-29.333 -36 -67 -54 -113 -54s-84.167 14.5 -114.5 43.5s-45.5 63.167 -45.5 102.5l60 13c4.66699 -26 15.334 -48.333 32.001 -67c19.333 -21.333 41.666 -32 66.999 -32
c21.333 0 40 7.33301 56 22s24 33.667 24 57c0 43.333 -19.333 80.666 -58 111.999l-109 77c-39.333 34 -59 75.667 -59 125c0 32.667 6.83301 60 20.5 82s32.834 38 57.501 48c-14.667 14.667 -26 31 -34 49s-12 39.333 -12 64c0 43.333 12.667 76.666 38 99.999
s57.333 35 96 35c40.667 0 74.334 -13.667 101.001 -41c24.667 -25.333 38.667 -55.666 42 -90.999zM104.998 449.002c0 -24.667 9 -47.334 27 -68.001c2.66699 -3.33301 40 -31.333 112 -84c14.667 6.66699 27.334 16 38.001 28s16 26.333 16 43
c0 42.667 -19 79.667 -57 111c-8.66699 7.33301 -30.334 22.333 -65.001 45c-15.333 0 -31 -7.66699 -47 -23s-24 -32.666 -24 -51.999z" />
    <glyph glyph-name="dieresis" unicode="&#xa8;" horiz-adv-x="396" 
d="M40 803h322v-65h-247v-278h188v-65h-188v-330h261v-65h-336v803zM79 966h75v-88h-75v88zM231 966h75v-88h-75v88z" />
    <glyph glyph-name="copyright" unicode="&#xa9;" horiz-adv-x="861" 
d="M430 777c-103.333 0 -191.667 -36.667 -265 -110s-110 -161.666 -110 -264.999s36.5 -191.833 109.5 -265.5s161.5 -110.5 265.5 -110.5s192.667 36.667 266 110s110 162 110 266c0 103.333 -36.667 191.666 -110 264.999s-162 110 -266 110zM429.999 -14
c-114 0 -211.667 40.667 -293 122s-122 179.333 -122 294s40.5 212.5 121.5 293.5s178.833 121.5 293.5 121.5s212.667 -40.333 294 -121s122 -178.667 122 -294c0 -114.667 -40.667 -212.667 -122 -294s-179.333 -122 -294 -122zM565.999 533l-65.001 -8.00293
c-4 42.667 -11.167 71.334 -21.5 86.001s-28.5 22 -54.5 22c-28.667 0 -51.5 -19.667 -68.5 -59s-25.5 -96.333 -25.5 -171c0 -70.667 7.83301 -128 23.5 -172s39.834 -66 72.501 -66c30 0 52 12.667 66 38c12 21.333 18 51.333 18 90l65 -8
c0 -45.333 -12.667 -85.666 -38 -120.999c-28 -39.333 -64 -59 -108 -59c-60.667 0 -104.667 29.667 -132 89c-22 48 -33 116 -33 204c0 88.667 11.333 157.334 34 206.001c28 59.333 72.667 89 134 89c34 0 62.667 -10.333 86 -31c31.333 -28 47 -71 47 -129z" />
    <glyph glyph-name="guillemotleft" unicode="&#xab;" horiz-adv-x="341" 
d="M311 149l-141 141v40l141 141v-70l-93 -92l93 -90v-70zM171 149l-141 141v40l141 141v-70l-93 -92l93 -90v-70z" />
    <glyph glyph-name="registered" unicode="&#xae;" horiz-adv-x="861" 
d="M430 777c-103.333 0 -191.667 -36.667 -265 -110s-110 -161.666 -110 -264.999s36.5 -191.833 109.5 -265.5s161.5 -110.5 265.5 -110.5s192.667 36.667 266 110s110 162 110 266c0 103.333 -36.667 191.666 -110 264.999s-162 110 -266 110zM429.999 -14
c-114 0 -211.667 40.667 -293 122s-122 179.333 -122 294s40.5 212.5 121.5 293.5s178.833 121.5 293.5 121.5s212.667 -40.333 294 -121s122 -178.667 122 -294c0 -114.667 -40.667 -212.667 -122 -294s-179.333 -122 -294 -122zM303.999 109l0.00195312 580.001h141
c41.333 0 74.666 -15.167 99.999 -45.5s38 -65.5 38 -105.5c0 -31.333 -6.83301 -60.833 -20.5 -88.5s-32.834 -47.834 -57.501 -60.501l81 -280h-75l-70 268h-67v-268h-70zM374.001 629.001v-192h57c25.333 0 44.5 9.33301 57.5 28s19.5 43 19.5 73
c0 27.333 -6 49.333 -18 66s-30.333 25 -55 25h-61z" />
    <glyph glyph-name="degree" unicode="&#xb0;" horiz-adv-x="250" 
d="M125 607c-28.667 0 -53.334 10.333 -74.001 31s-31 45.334 -31 74.001s10.333 53.334 31 74.001s45.334 31 74.001 31s53.334 -10.333 74.001 -31s31 -45.334 31 -74.001s-10.333 -53.334 -31 -74.001s-45.334 -31 -74.001 -31zM125 639c20 0 37.167 7.16699 51.5 21.5
s21.5 31.5 21.5 51.5s-7.16699 37.167 -21.5 51.5s-31.5 21.5 -51.5 21.5s-37.167 -7.16699 -51.5 -21.5s-21.5 -31.5 -21.5 -51.5s7.16699 -37.167 21.5 -51.5s31.5 -21.5 51.5 -21.5z" />
    <glyph glyph-name="plusminus" unicode="&#xb1;" horiz-adv-x="474" 
d="M270 618v-184h184v-65h-184v-185h-65v185h-185v65h185v184h65zM19 122h434v-65h-434v65z" />
    <glyph glyph-name="twosuperior" unicode="&#xb2;" horiz-adv-x="310" 
d="M273 314l-242.999 -0.00390625v31c0 30.667 15.333 66 46 106l86 102c31.333 40.667 47 76.334 47 107.001c0 17.333 -3.66699 32.333 -11 45c-9.33301 16 -23 24 -41 24c-20.667 0 -35.667 -7.83301 -45 -23.5s-16 -40.167 -20 -73.5l-62 10
c0 36.667 10 67.334 30 92.001c23.333 29.333 55.666 44 96.999 44c37.333 0 66 -11.667 86 -35s30 -51.666 30 -84.999c0 -35.333 -15.667 -73.333 -47 -114l-87 -96c-31.333 -35.333 -47 -64.666 -47 -87.999h181v-46z" />
    <glyph glyph-name="threesuperior" unicode="&#xb3;" horiz-adv-x="310" 
d="M138 319c-32.667 0 -58.168 9.83008 -76.501 29.4971s-31.5 48.5 -39.5 86.5l57 8c3.33301 -22.667 8.66602 -39.667 15.999 -51c10.667 -16.667 26.667 -25 48 -25c24.667 0 43.334 9.66699 56.001 29c10.667 16 16 36.333 16 61s-7.83301 45.5 -23.5 62.5
s-36.167 25.5 -61.5 25.5h-37v49h37c22 0 40 7.33301 54 22s21 32 21 52s-4.66699 36.667 -14 50c-11.333 16 -27.333 24 -48 24c-31.333 0 -49.666 -22.667 -54.999 -68l-57 7c6 36 19.167 63.333 39.5 82s43.5 28 69.5 28c40 0 71.667 -13.667 95 -41
c20 -23.333 30 -50.666 30 -81.999c0 -21.333 -7 -41.666 -21 -60.999s-27 -30.666 -39 -33.999c14 -2.66699 29.5 -16 46.5 -40s25.5 -48.333 25.5 -73c0 -36.667 -10.667 -68 -32 -94c-25.333 -31.333 -61 -47 -107 -47z" />
    <glyph glyph-name="mu" unicode="&#xb5;" horiz-adv-x="381" 
d="M345 572l0.000976562 -572.001h-70v61c-22.667 -19.333 -42.334 -34 -59.001 -44c-28.667 -16.667 -55.667 -25 -81 -25c-12 0 -22.667 1.66699 -32 5v-195h-70v770h70v-442c0 -25.333 5.83301 -44.666 17.5 -57.999s26.167 -20 43.5 -20c19.333 0 40.333 8.66699 63 26
s38.667 36 48 56v438h70z" />
    <glyph glyph-name="paragraph" unicode="&#xb6;" horiz-adv-x="455" 
d="M150 803l270 -0.000976562v-60h-57v-941h-70v941h-73v-941h-70v724c-38.667 0 -71.667 13.333 -99 40s-41 59.334 -41 98.001c0 38 13.667 70.667 41 98s60.333 41 99 41z" />
    <glyph glyph-name="periodcentered" unicode="&#xb7;" horiz-adv-x="190" 
d="M95 254c15.333 0 28.333 5.33301 39 16s16 23.667 16 39s-5.33301 28.333 -16 39s-23.667 16 -39 16s-28.333 -5.33301 -39 -16s-16 -23.667 -16 -39s5.33301 -28.333 16 -39s23.667 -16 39 -16z" />
    <glyph glyph-name="periodcentered" unicode="&#x2219;" horiz-adv-x="190" 
d="M95 254c15.333 0 28.333 5.33301 39 16s16 23.667 16 39s-5.33301 28.333 -16 39s-23.667 16 -39 16s-28.333 -5.33301 -39 -16s-16 -23.667 -16 -39s5.33301 -28.333 16 -39s23.667 -16 39 -16z" />
    <glyph glyph-name="cedilla" unicode="&#xb8;" horiz-adv-x="378" 
d="M349 280l-251 0.000976562c0 -68.667 8.5 -123.834 25.5 -165.501s43.833 -62.5 80.5 -62.5c18 0 33.667 6 47 18c18 16.667 30.667 44 38 82l60 -7c-6.66699 -54.667 -25.667 -95 -57 -121c-25.333 -21.333 -57.666 -32 -96.999 -32
c-52.667 0 -92.834 25.333 -120.501 76s-41.5 123 -41.5 217c0 97.333 13.833 170.833 41.5 220.5s67.5 74.5 119.5 74.5c50 0 87.667 -22.333 113 -67c28 -49.333 42 -127 42 -233zM98 340.001h184c0 59.333 -7.83301 104.166 -23.5 134.499s-37.167 45.5 -64.5 45.5
c-28 0 -51 -16.167 -69 -48.5s-27 -76.166 -27 -131.499zM88 766.001h70v-79h-70v79zM223 766.001h70v-79h-70v79z" />
    <glyph glyph-name="guillemotright" unicode="&#xbb;" horiz-adv-x="341" 
d="M30 471l141 -141v-40l-141 -141v70l93 92l-93 90v70zM170 471l141 -141v-40l-141 -141v70l93 92l-93 90v70z" />
    <glyph glyph-name="onequarter" unicode="&#xbc;" horiz-adv-x="600" 
d="M372 803h58l-230 -803h-58zM25 353v46h58v351h-63v32l85 35h39v-418h58v-46h-177zM449 0v112h-152v44l132 300h82v-298h53v-46h-53v-112h-62zM449 158v215l-94 -215h94z" />
    <glyph glyph-name="onehalf" unicode="&#xbd;" horiz-adv-x="616" 
d="M372 803h58l-230 -803h-58zM25 353v46h58v351h-63v32l85 35h39v-418h58v-46h-177zM585 0l-242.999 -0.00390625v31c0 30.667 15.333 66 46 106l86 102c31.333 40.667 47 76.334 47 107.001c0 17.333 -3.66699 32.333 -11 45c-9.33301 16 -23 24 -41 24
c-20.667 0 -35.667 -7.83301 -45 -23.5s-16 -40.167 -20 -73.5l-62 10c0 36.667 10 67.334 30 92.001c23.333 29.333 55.666 44 96.999 44c37.333 0 66 -11.667 86 -35s30 -51.666 30 -84.999c0 -35.333 -15.667 -73.333 -47 -114l-87 -96
c-31.333 -35.333 -47 -64.666 -47 -87.999h181v-46z" />
    <glyph glyph-name="threequarters" unicode="&#xbe;" horiz-adv-x="630" 
d="M417 803h58l-230 -803h-58zM136 353c-32.667 0 -58.168 9.83008 -76.501 29.4971s-31.5 48.5 -39.5 86.5l57 8c3.33301 -22.667 8.66602 -39.667 15.999 -51c10.667 -16.667 26.667 -25 48 -25c24.667 0 43.334 9.66699 56.001 29c10.667 16 16 36.333 16 61
s-7.83301 45.5 -23.5 62.5s-36.167 25.5 -61.5 25.5h-37v49h37c22 0 40 7.33301 54 22s21 32 21 52s-4.66699 36.667 -14 50c-11.333 16 -27.333 24 -48 24c-31.333 0 -49.666 -22.667 -54.999 -68l-57 7c6 36 19.167 63.333 39.5 82s43.5 28 69.5 28
c40 0 71.667 -13.667 95 -41c20 -23.333 30 -50.666 30 -81.999c0 -21.333 -7 -41.666 -21 -60.999s-27 -30.666 -39 -33.999c14 -2.66699 29.5 -16 46.5 -40s25.5 -48.333 25.5 -73c0 -36.667 -10.667 -68 -32 -94c-25.333 -31.333 -61 -47 -107 -47zM493.999 -0.00292969
v112h-152v44l132 300h82v-298h53v-46h-53v-112h-62zM493.999 157.997v215l-94 -215h94z" />
    <glyph glyph-name="questiondown" unicode="&#xbf;" horiz-adv-x="401" 
d="M183 803h75v-88h-75v88zM183 -14c-46 0 -85.667 17.3311 -119 51.998s-50 76.667 -50 126c0 54 14.333 101.667 43 143l82 107c29.333 46.667 44 101.334 44 164.001v49h75v-49c0 -65.333 -14 -122.666 -42 -171.999l-80 -112c-28.667 -41.333 -43 -83 -43 -125
c0 -32 8.66699 -59.667 26 -83s38.666 -35 63.999 -35c34.667 0 61.334 16 80.001 48c16.667 28 27.334 69.333 32.001 124l75 -13c0 -58 -14.667 -108 -44 -150c-34.667 -49.333 -82.334 -74 -143.001 -74z" />
    <glyph glyph-name="Agrave" unicode="&#xc0;" horiz-adv-x="430" 
d="M302 244h-174l-53 -244h-75l173 803h84l173 -803h-75zM140 309h150l-75 395z" />
    <glyph glyph-name="Agrave" unicode="&#x410;" horiz-adv-x="430" 
d="M302 244h-174l-53 -244h-75l173 803h84l173 -803h-75zM140 309h150l-75 395z" />
    <glyph glyph-name="Aacute" unicode="&#xc1;" horiz-adv-x="434" 
d="M115 738l-0.000976562 -257h88c64.667 0 115.334 -25.667 152.001 -77c32.667 -45.333 49 -100 49 -164c0 -65.333 -15 -120 -45 -164c-34.667 -50.667 -83.667 -76 -147 -76h-172v803h322v-65h-247zM114.999 416v-351.001h76c43.333 0 77 17.667 101 53
c22 32 33 72.667 33 122c0 48.667 -9.66699 88.334 -29 119.001c-24 38 -59 57 -105 57h-76z" />
    <glyph glyph-name="Aacute" unicode="&#x411;" horiz-adv-x="434" 
d="M115 738l-0.000976562 -257h88c64.667 0 115.334 -25.667 152.001 -77c32.667 -45.333 49 -100 49 -164c0 -65.333 -15 -120 -45 -164c-34.667 -50.667 -83.667 -76 -147 -76h-172v803h322v-65h-247zM114.999 416v-351.001h76c43.333 0 77 17.667 101 53
c22 32 33 72.667 33 122c0 48.667 -9.66699 88.334 -29 119.001c-24 38 -59 57 -105 57h-76z" />
    <glyph glyph-name="Acircumflex" unicode="&#xc2;" 
d="M40 0v803h180c60.667 0 108 -20.333 142 -61c30 -36 45 -81 45 -135c0 -40.667 -10 -78 -30 -112s-44.667 -55.333 -74 -64c33.333 -9.33301 62 -33.5 86 -72.5s36 -81.833 36 -128.5c0 -62.667 -16.333 -115 -49 -157c-38 -48.667 -90.667 -73 -158 -73h-178zM115 738
v-278h91c38 0 69.333 15.667 94 47c22.667 28.667 34 62 34 100c0 36.667 -9.66699 67 -29 91c-21.333 26.667 -50.333 40 -87 40h-103zM115 395l0.000976562 -329.998h105c42 0 75 16.667 99 50c20.667 29.333 31 65.666 31 108.999c0 47.333 -13.333 87.666 -40 120.999
s-61.334 50 -104.001 50h-91z" />
    <glyph glyph-name="Acircumflex" unicode="&#x412;" 
d="M40 0v803h180c60.667 0 108 -20.333 142 -61c30 -36 45 -81 45 -135c0 -40.667 -10 -78 -30 -112s-44.667 -55.333 -74 -64c33.333 -9.33301 62 -33.5 86 -72.5s36 -81.833 36 -128.5c0 -62.667 -16.333 -115 -49 -157c-38 -48.667 -90.667 -73 -158 -73h-178zM115 738
v-278h91c38 0 69.333 15.667 94 47c22.667 28.667 34 62 34 100c0 36.667 -9.66699 67 -29 91c-21.333 26.667 -50.333 40 -87 40h-103zM115 395l0.000976562 -329.998h105c42 0 75 16.667 99 50c20.667 29.333 31 65.666 31 108.999c0 47.333 -13.333 87.666 -40 120.999
s-61.334 50 -104.001 50h-91z" />
    <glyph glyph-name="Atilde" unicode="&#xc3;" horiz-adv-x="366" 
d="M40 0v803h321v-65h-246v-738h-75z" />
    <glyph glyph-name="Atilde" unicode="&#x413;" horiz-adv-x="366" 
d="M40 0v803h321v-65h-246v-738h-75z" />
    <glyph glyph-name="Adieresis" unicode="&#xc4;" horiz-adv-x="489" 
d="M346 738h-186v-482c0 -34 -5 -69 -15 -105c-12 -42 -27 -70.667 -45 -86h246v673zM85 803h336.001v-738h49v-215h-65v150h-330v-150h-65v215c25.333 16 44.666 46.667 57.999 92c11.333 38 17 77.667 17 119v527z" />
    <glyph glyph-name="Adieresis" unicode="&#x414;" horiz-adv-x="489" 
d="M346 738h-186v-482c0 -34 -5 -69 -15 -105c-12 -42 -27 -70.667 -45 -86h246v673zM85 803h336.001v-738h49v-215h-65v150h-330v-150h-65v215c25.333 16 44.666 46.667 57.999 92c11.333 38 17 77.667 17 119v527z" />
    <glyph glyph-name="Aring" unicode="&#xc5;" horiz-adv-x="396" 
d="M40 803h322v-65h-247v-278h188v-65h-188v-330h261v-65h-336v803z" />
    <glyph glyph-name="Aring" unicode="&#x415;" horiz-adv-x="396" 
d="M40 803h322v-65h-247v-278h188v-65h-188v-330h261v-65h-336v803z" />
    <glyph glyph-name="AE" unicode="&#xc6;" horiz-adv-x="707" 
d="M316 0v263l-99 180l-138 -443h-79l174 522l-157 281h78l221 -412v412h75v-412l221 412h78l-157 -281l174 -522h-79l-138 443l-99 -180v-263h-75z" />
    <glyph glyph-name="AE" unicode="&#x416;" horiz-adv-x="707" 
d="M316 0v263l-99 180l-138 -443h-79l174 522l-157 281h78l221 -412v412h75v-412l221 412h78l-157 -281l174 -522h-79l-138 443l-99 -180v-263h-75z" />
    <glyph glyph-name="Ccedilla" unicode="&#xc7;" horiz-adv-x="433" 
d="M22 176l68.999 10c3.33301 -34.667 12 -63.667 26 -87c19.333 -32 46.666 -48 81.999 -48c40.667 0 72 19 94 57c18.667 32.667 28 71.334 28 116.001c0 47.333 -13.333 87.666 -40 120.999s-61.334 50 -104.001 50h-47v65h47c38 0 69.333 15.667 94 47
c22.667 28.667 34 62 34 100c0 38.667 -8.33301 71.334 -25 98.001c-19.333 31.333 -46.333 47 -81 47c-25.333 0 -46.666 -11.167 -63.999 -33.5s-27.666 -51.5 -30.999 -87.5l-68 10c8.66699 56.667 27.5 100.167 56.5 130.5s62.833 45.5 101.5 45.5
c60.667 0 107.667 -22.667 141 -68c28.667 -38.667 43 -86 43 -142c0 -40 -10.833 -77.167 -32.5 -111.5s-47.167 -55.833 -76.5 -64.5c34 -9.33301 63.667 -33.5 89 -72.5s38 -81.833 38 -128.5c0 -64.667 -15.667 -119.334 -47 -164.001
c-37.333 -53.333 -90.333 -80 -159 -80c-47.333 0 -85 17.333 -113 52c-25.333 31.333 -43.666 77.333 -54.999 138z" />
    <glyph glyph-name="Ccedilla" unicode="&#x417;" horiz-adv-x="433" 
d="M22 176l68.999 10c3.33301 -34.667 12 -63.667 26 -87c19.333 -32 46.666 -48 81.999 -48c40.667 0 72 19 94 57c18.667 32.667 28 71.334 28 116.001c0 47.333 -13.333 87.666 -40 120.999s-61.334 50 -104.001 50h-47v65h47c38 0 69.333 15.667 94 47
c22.667 28.667 34 62 34 100c0 38.667 -8.33301 71.334 -25 98.001c-19.333 31.333 -46.333 47 -81 47c-25.333 0 -46.666 -11.167 -63.999 -33.5s-27.666 -51.5 -30.999 -87.5l-68 10c8.66699 56.667 27.5 100.167 56.5 130.5s62.833 45.5 101.5 45.5
c60.667 0 107.667 -22.667 141 -68c28.667 -38.667 43 -86 43 -142c0 -40 -10.833 -77.167 -32.5 -111.5s-47.167 -55.833 -76.5 -64.5c34 -9.33301 63.667 -33.5 89 -72.5s38 -81.833 38 -128.5c0 -64.667 -15.667 -119.334 -47 -164.001
c-37.333 -53.333 -90.333 -80 -159 -80c-47.333 0 -85 17.333 -113 52c-25.333 31.333 -43.666 77.333 -54.999 138z" />
    <glyph glyph-name="Egrave" unicode="&#xc8;" horiz-adv-x="484" 
d="M40 0v803h75v-641l229 641h100v-803h-75v704l-254 -704h-75z" />
    <glyph glyph-name="Egrave" unicode="&#x418;" horiz-adv-x="484" 
d="M40 0v803h75v-641l229 641h100v-803h-75v704l-254 -704h-75z" />
    <glyph glyph-name="Eacute" unicode="&#xc9;" horiz-adv-x="484" 
d="M40 0v803h75v-641l229 641h100v-803h-75v704l-254 -704h-75zM234 840c-34 0 -63.999 9.66699 -89.999 29c-30 22 -50 54.667 -60 98l63 16c14 -58 43 -87 87 -87c42 0 70.667 29.333 86 88l61 -18c-8.66699 -42 -28.334 -74.333 -59.001 -97
c-26 -19.333 -55.333 -29 -88 -29z" />
    <glyph glyph-name="Eacute" unicode="&#x419;" horiz-adv-x="484" 
d="M40 0v803h75v-641l229 641h100v-803h-75v704l-254 -704h-75zM234 840c-34 0 -63.999 9.66699 -89.999 29c-30 22 -50 54.667 -60 98l63 16c14 -58 43 -87 87 -87c42 0 70.667 29.333 86 88l61 -18c-8.66699 -42 -28.334 -74.333 -59.001 -97
c-26 -19.333 -55.333 -29 -88 -29z" />
    <glyph glyph-name="Ecircumflex" unicode="&#xca;" horiz-adv-x="431" 
d="M40 803h75v-412l221 412h78l-157 -281l174 -522h-79l-138 443l-99 -180v-263h-75v803z" />
    <glyph glyph-name="Ecircumflex" unicode="&#x41a;" horiz-adv-x="431" 
d="M40 803h75v-412l221 412h78l-157 -281l174 -522h-79l-138 443l-99 -180v-263h-75v803z" />
    <glyph glyph-name="Edieresis" unicode="&#xcb;" horiz-adv-x="473" 
d="M88 803l336.001 0.000976562v-803h-75v738h-186v-620c0 -34.667 -9.33301 -64.334 -28 -89.001s-41 -37 -67 -37c-8 0 -15.167 0.333008 -21.5 1s-17.5 3 -33.5 7v65c9.33301 -1.33301 15.666 -2 18.999 -2c37.333 0 56 23.667 56 71v669z" />
    <glyph glyph-name="Edieresis" unicode="&#x41b;" horiz-adv-x="473" 
d="M88 803l336.001 0.000976562v-803h-75v738h-186v-620c0 -34.667 -9.33301 -64.334 -28 -89.001s-41 -37 -67 -37c-8 0 -15.167 0.333008 -21.5 1s-17.5 3 -33.5 7v65c9.33301 -1.33301 15.666 -2 18.999 -2c37.333 0 56 23.667 56 71v669z" />
    <glyph glyph-name="Igrave" unicode="&#xcc;" horiz-adv-x="592" 
d="M40 803h130l127 -568l123 568h130v-803h-75v702l-158 -702h-40l-162 689v-689h-75v803z" />
    <glyph glyph-name="Igrave" unicode="&#x41c;" horiz-adv-x="592" 
d="M40 803h130l127 -568l123 568h130v-803h-75v702l-158 -702h-40l-162 689v-689h-75v803z" />
    <glyph glyph-name="Iacute" unicode="&#xcd;" horiz-adv-x="473" 
d="M40 0v803h75v-342h234v342h75v-803h-75v396h-234v-396h-75z" />
    <glyph glyph-name="Iacute" unicode="&#x41d;" horiz-adv-x="473" 
d="M40 0v803h75v-342h234v342h75v-803h-75v396h-234v-396h-75z" />
    <glyph glyph-name="Icircumflex" unicode="&#xce;" horiz-adv-x="495" 
d="M250 -14c-82.667 0 -141.332 43.667 -175.999 131c-26.667 68 -40 166.333 -40 295c0 124.667 12.667 218 38 280c34 83.333 93 125 177 125c83.333 0 141.666 -41.333 174.999 -124c25.333 -62.667 38 -156.334 38 -281.001c0 -84.667 -4.66699 -153.667 -14 -207
c-12 -69.333 -32.333 -121.666 -61 -156.999c-33.333 -41.333 -79 -62 -137 -62zM250.002 51c55.333 0 92.666 36 111.999 108c14 52 21 136.333 21 253c0 137.333 -11.167 228.333 -33.5 273s-55.833 67 -100.5 67c-54 0 -91.667 -35.667 -113 -107
c-15.333 -52 -23 -129.667 -23 -233c0 -80 2.83301 -144.333 8.5 -193s17.834 -87.667 36.501 -117c21.333 -34 52 -51 92 -51z" />
    <glyph glyph-name="Icircumflex" unicode="&#x41e;" horiz-adv-x="495" 
d="M250 -14c-82.667 0 -141.332 43.667 -175.999 131c-26.667 68 -40 166.333 -40 295c0 124.667 12.667 218 38 280c34 83.333 93 125 177 125c83.333 0 141.666 -41.333 174.999 -124c25.333 -62.667 38 -156.334 38 -281.001c0 -84.667 -4.66699 -153.667 -14 -207
c-12 -69.333 -32.333 -121.666 -61 -156.999c-33.333 -41.333 -79 -62 -137 -62zM250.002 51c55.333 0 92.666 36 111.999 108c14 52 21 136.333 21 253c0 137.333 -11.167 228.333 -33.5 273s-55.833 67 -100.5 67c-54 0 -91.667 -35.667 -113 -107
c-15.333 -52 -23 -129.667 -23 -233c0 -80 2.83301 -144.333 8.5 -193s17.834 -87.667 36.501 -117c21.333 -34 52 -51 92 -51z" />
    <glyph glyph-name="Idieresis" unicode="&#xcf;" horiz-adv-x="473" 
d="M40 0v803h384v-803h-75v738h-234v-738h-75z" />
    <glyph glyph-name="Idieresis" unicode="&#x41f;" horiz-adv-x="473" 
d="M40 0v803h384v-803h-75v738h-234v-738h-75z" />
    <glyph glyph-name="Eth" unicode="&#xd0;" horiz-adv-x="434" 
d="M40 0v803h184c59.333 0 106.333 -22.667 141 -68c31.333 -41.333 47 -93.333 47 -156c0 -62 -16.667 -112.333 -50 -151c-36.667 -42.667 -87 -64 -151 -64h-96v-364h-75zM115 738l-0.000976562 -309h84c46.667 0 81.334 14.333 104.001 43c20 25.333 30 61 30 107
c0 48.667 -9.66699 86.667 -29 114c-21.333 30 -54 45 -98 45h-91z" />
    <glyph glyph-name="Eth" unicode="&#x420;" horiz-adv-x="434" 
d="M40 0v803h184c59.333 0 106.333 -22.667 141 -68c31.333 -41.333 47 -93.333 47 -156c0 -62 -16.667 -112.333 -50 -151c-36.667 -42.667 -87 -64 -151 -64h-96v-364h-75zM115 738l-0.000976562 -309h84c46.667 0 81.334 14.333 104.001 43c20 25.333 30 61 30 107
c0 48.667 -9.66699 86.667 -29 114c-21.333 30 -54 45 -98 45h-91z" />
    <glyph glyph-name="Ntilde" unicode="&#xd1;" horiz-adv-x="446" 
d="M412 580l-65 -7.99707c0 46.667 -7.33301 85.667 -22 117c-19.333 42 -49 63 -89 63c-38.667 0 -68 -23 -88 -69c-24 -54.667 -36 -146.334 -36 -275.001c0 -60.667 2.83301 -116.5 8.5 -167.5s17.167 -93.167 34.5 -126.5c21.333 -42 50.666 -63 87.999 -63
c44.667 0 76 24.333 94 73c12.667 34 19 81.667 19 143l65 -8c0 -72.667 -11.667 -132.667 -35 -180c-30.667 -62 -78.334 -93 -143.001 -93c-56 0 -100.667 22.333 -134 67c-28 37.333 -48.333 91 -61 161c-10 55.333 -15 119.666 -15 192.999c0 115.333 13 207 39 275
c34.667 90 90.334 135 167.001 135c58.667 0 103.334 -25.333 134.001 -76c26 -42.667 39 -96.334 39 -161.001z" />
    <glyph glyph-name="Ntilde" unicode="&#x421;" horiz-adv-x="446" 
d="M412 580l-65 -7.99707c0 46.667 -7.33301 85.667 -22 117c-19.333 42 -49 63 -89 63c-38.667 0 -68 -23 -88 -69c-24 -54.667 -36 -146.334 -36 -275.001c0 -60.667 2.83301 -116.5 8.5 -167.5s17.167 -93.167 34.5 -126.5c21.333 -42 50.666 -63 87.999 -63
c44.667 0 76 24.333 94 73c12.667 34 19 81.667 19 143l65 -8c0 -72.667 -11.667 -132.667 -35 -180c-30.667 -62 -78.334 -93 -143.001 -93c-56 0 -100.667 22.333 -134 67c-28 37.333 -48.333 91 -61 161c-10 55.333 -15 119.666 -15 192.999c0 115.333 13 207 39 275
c34.667 90 90.334 135 167.001 135c58.667 0 103.334 -25.333 134.001 -76c26 -42.667 39 -96.334 39 -161.001z" />
    <glyph glyph-name="Ograve" unicode="&#xd2;" horiz-adv-x="409" 
d="M10 803h389v-65h-156v-738h-75v738h-158v65z" />
    <glyph glyph-name="Ograve" unicode="&#x422;" horiz-adv-x="409" 
d="M10 803h389v-65h-156v-738h-75v738h-158v65z" />
    <glyph glyph-name="Oacute" unicode="&#xd3;" horiz-adv-x="393" 
d="M177 155l-177 647.999h81l130 -528l109 528h73l-149 -676c-9.33301 -41.333 -26.333 -74.166 -51 -98.499s-54 -36.5 -88 -36.5h-76v66h62c46 0 74.667 32.333 86 97z" />
    <glyph glyph-name="Oacute" unicode="&#x423;" horiz-adv-x="393" 
d="M177 155l-177 647.999h81l130 -528l109 528h73l-149 -676c-9.33301 -41.333 -26.333 -74.166 -51 -98.499s-54 -36.5 -88 -36.5h-76v66h62c46 0 74.667 32.333 86 97z" />
    <glyph glyph-name="Ocircumflex" unicode="&#xd4;" horiz-adv-x="639" 
d="M282 0l0.00195312 162h-49c-68.667 0 -122 26 -160 78c-35.333 48 -53 111.333 -53 190c0 74 19.167 135.667 57.5 185s90.166 74 155.499 74h49v114h75v-114h49c65.333 0 117.666 -25.333 156.999 -76c37.333 -48 56 -109 56 -183c0 -78 -17.667 -141 -53 -189
c-38.667 -52.667 -92 -79 -160 -79h-49v-162h-75zM357.002 624v-397h38c50 0 86.667 16 110 48s35 83.667 35 155c0 64.667 -13.5 113.167 -40.5 145.5s-63.5 48.5 -109.5 48.5h-33zM282.002 227l0.000976562 397h-33c-44.667 0 -80.334 -15.667 -107.001 -47
c-28.667 -34 -43 -83 -43 -147c0 -72 11.5 -123.833 34.5 -155.5s59.833 -47.5 110.5 -47.5h38z" />
    <glyph glyph-name="Ocircumflex" unicode="&#x424;" horiz-adv-x="639" 
d="M282 0l0.00195312 162h-49c-68.667 0 -122 26 -160 78c-35.333 48 -53 111.333 -53 190c0 74 19.167 135.667 57.5 185s90.166 74 155.499 74h49v114h75v-114h49c65.333 0 117.666 -25.333 156.999 -76c37.333 -48 56 -109 56 -183c0 -78 -17.667 -141 -53 -189
c-38.667 -52.667 -92 -79 -160 -79h-49v-162h-75zM357.002 624v-397h38c50 0 86.667 16 110 48s35 83.667 35 155c0 64.667 -13.5 113.167 -40.5 145.5s-63.5 48.5 -109.5 48.5h-33zM282.002 227l0.000976562 397h-33c-44.667 0 -80.334 -15.667 -107.001 -47
c-28.667 -34 -43 -83 -43 -147c0 -72 11.5 -123.833 34.5 -155.5s59.833 -47.5 110.5 -47.5h38z" />
    <glyph glyph-name="Otilde" unicode="&#xd5;" horiz-adv-x="405" 
d="M4 803h72l121 -294l116 294h75l-147 -368l164 -435h-75l-133 346l-122 -346h-75l149 435z" />
    <glyph glyph-name="Otilde" unicode="&#x425;" horiz-adv-x="405" 
d="M4 803h72l121 -294l116 294h75l-147 -368l164 -435h-75l-133 346l-122 -346h-75l149 435z" />
    <glyph glyph-name="Odieresis" unicode="&#xd6;" horiz-adv-x="489" 
d="M40 0v803h75v-738h234v738h75v-738h49v-215h-65v150h-368z" />
    <glyph glyph-name="Odieresis" unicode="&#x426;" horiz-adv-x="489" 
d="M40 0v803h75v-738h234v738h75v-738h49v-215h-65v150h-368z" />
    <glyph glyph-name="multiply" unicode="&#xd7;" horiz-adv-x="453" 
d="M329 0l-0.000976562 365h-110c-55.333 0 -102.333 20 -141 60s-58 89 -58 147v231h75v-231c0 -39.333 12.833 -72.833 38.5 -100.5s56.834 -41.5 93.501 -41.5h102v373h75v-803h-75z" />
    <glyph glyph-name="multiply" unicode="&#x427;" horiz-adv-x="453" 
d="M329 0l-0.000976562 365h-110c-55.333 0 -102.333 20 -141 60s-58 89 -58 147v231h75v-231c0 -39.333 12.833 -72.833 38.5 -100.5s56.834 -41.5 93.501 -41.5h102v373h75v-803h-75z" />
    <glyph glyph-name="Oslash" unicode="&#xd8;" horiz-adv-x="703" 
d="M40 0v803h75v-738h199v738h75v-738h199v738h75v-803h-623z" />
    <glyph glyph-name="Oslash" unicode="&#x428;" horiz-adv-x="703" 
d="M40 0v803h75v-738h199v738h75v-738h199v738h75v-803h-623z" />
    <glyph glyph-name="Ugrave" unicode="&#xd9;" horiz-adv-x="724" 
d="M40 0v803h75v-738h199v738h75v-738h199v738h75v-738h49v-215h-65v150h-607z" />
    <glyph glyph-name="Ugrave" unicode="&#x429;" horiz-adv-x="724" 
d="M40 0v803h75v-738h199v738h75v-738h199v738h75v-738h49v-215h-65v150h-607z" />
    <glyph glyph-name="Uacute" unicode="&#xda;" horiz-adv-x="468" 
d="M10 803h150v-322h88c62.667 0 112.667 -25.333 150 -76c33.333 -44.667 50 -99 50 -163s-16 -119 -48 -165c-36 -51.333 -83.667 -77 -143 -77h-172v738h-75v65zM160 416v-351h76c43.333 0 77 17.667 101 53c21.333 31.333 32 72 32 122c0 48 -9.66699 87.667 -29 119
c-23.333 38 -58 57 -104 57h-76z" />
    <glyph glyph-name="Uacute" unicode="&#x42a;" horiz-adv-x="468" 
d="M10 803h150v-322h88c62.667 0 112.667 -25.333 150 -76c33.333 -44.667 50 -99 50 -163s-16 -119 -48 -165c-36 -51.333 -83.667 -77 -143 -77h-172v738h-75v65zM160 416v-351h76c43.333 0 77 17.667 101 53c21.333 31.333 32 72 32 122c0 48 -9.66699 87.667 -29 119
c-23.333 38 -58 57 -104 57h-76z" />
    <glyph glyph-name="Ucircumflex" unicode="&#xdb;" horiz-adv-x="556" 
d="M40 803h75v-322h88c62.667 0 112.667 -25.333 150 -76c33.333 -44.667 50 -99 50 -163s-16 -119 -48 -165c-36 -51.333 -83.667 -77 -143 -77h-172v803zM115 416v-351h76c43.333 0 77 17.667 101 53c21.333 31.333 32 72 32 122c0 48 -9.66699 87.667 -29 119
c-23.333 38 -58 57 -104 57h-76zM441 803h75v-803h-75v803z" />
    <glyph glyph-name="Ucircumflex" unicode="&#x42b;" horiz-adv-x="556" 
d="M40 803h75v-322h88c62.667 0 112.667 -25.333 150 -76c33.333 -44.667 50 -99 50 -163s-16 -119 -48 -165c-36 -51.333 -83.667 -77 -143 -77h-172v803zM115 416v-351h76c43.333 0 77 17.667 101 53c21.333 31.333 32 72 32 122c0 48 -9.66699 87.667 -29 119
c-23.333 38 -58 57 -104 57h-76zM441 803h75v-803h-75v803z" />
    <glyph glyph-name="Udieresis" unicode="&#xdc;" horiz-adv-x="423" 
d="M40 803h75v-322h88c62.667 0 112.667 -25.333 150 -76c33.333 -44.667 50 -99 50 -163s-16 -119 -48 -165c-36 -51.333 -83.667 -77 -143 -77h-172v803zM115 416v-351h76c43.333 0 77 17.667 101 53c21.333 31.333 32 72 32 122c0 48 -9.66699 87.667 -29 119
c-23.333 38 -58 57 -104 57h-76z" />
    <glyph glyph-name="Udieresis" unicode="&#x42c;" horiz-adv-x="423" 
d="M40 803h75v-322h88c62.667 0 112.667 -25.333 150 -76c33.333 -44.667 50 -99 50 -163s-16 -119 -48 -165c-36 -51.333 -83.667 -77 -143 -77h-172v803zM115 416v-351h76c43.333 0 77 17.667 101 53c21.333 31.333 32 72 32 122c0 48 -9.66699 87.667 -29 119
c-23.333 38 -58 57 -104 57h-76z" />
    <glyph glyph-name="Yacute" unicode="&#xdd;" horiz-adv-x="446" 
d="M132 395v65h202c0 84 -8 150 -24 198c-20.667 62.667 -54 94 -100 94c-39.333 0 -68.666 -20.667 -87.999 -62c-15.333 -32.667 -23 -72 -23 -118l-65 8c0 64.667 12.667 118 38 160c30.667 51.333 75.667 77 135 77c76.667 0 132 -44.667 166 -134
c26.667 -69.333 40 -161.333 40 -276c0 -76 -4.66699 -140 -14 -192c-12.667 -69.333 -33.334 -123.333 -62.001 -162c-33.333 -44.667 -78 -67 -134 -67c-64.667 0 -112.334 31 -143.001 93c-23.333 47.333 -35 107.333 -35 180l65 8c0 -80 11 -137.333 33 -172
c18.667 -29.333 45.334 -44 80.001 -44c40 0 70.667 24 92 72c26 58 39 148.667 39 272h-202z" />
    <glyph glyph-name="Yacute" unicode="&#x42d;" horiz-adv-x="446" 
d="M132 395v65h202c0 84 -8 150 -24 198c-20.667 62.667 -54 94 -100 94c-39.333 0 -68.666 -20.667 -87.999 -62c-15.333 -32.667 -23 -72 -23 -118l-65 8c0 64.667 12.667 118 38 160c30.667 51.333 75.667 77 135 77c76.667 0 132 -44.667 166 -134
c26.667 -69.333 40 -161.333 40 -276c0 -76 -4.66699 -140 -14 -192c-12.667 -69.333 -33.334 -123.333 -62.001 -162c-33.333 -44.667 -78 -67 -134 -67c-64.667 0 -112.334 31 -143.001 93c-23.333 47.333 -35 107.333 -35 180l65 8c0 -80 11 -137.333 33 -172
c18.667 -29.333 45.334 -44 80.001 -44c40 0 70.667 24 92 72c26 58 39 148.667 39 272h-202z" />
    <glyph glyph-name="Thorn" unicode="&#xde;" horiz-adv-x="644" 
d="M407 -14c-81.333 0 -139.332 41.667 -173.999 125c-27.333 66 -41 161 -41 285h-77v-396h-75v803h75v-342h77c0 108 14.333 191 43 249c35.333 71.333 92.333 107 171 107c83.333 0 141.666 -41.333 174.999 -124c25.333 -62.667 38 -156.334 38 -281.001
c0 -84.667 -4.66699 -153.667 -14 -207c-12 -69.333 -32.333 -121.666 -61 -156.999c-33.333 -41.333 -79 -62 -137 -62zM407.001 51c55.333 0 92.666 36 111.999 108c14 52 21 136.333 21 253c0 137.333 -11.167 228.333 -33.5 273s-55.833 67 -100.5 67
c-54 0 -91.667 -35.667 -113 -107c-15.333 -52 -23 -129.667 -23 -233c0 -80 2.83301 -144.333 8.5 -193s17.834 -87.667 36.501 -117c21.333 -34 52 -51 92 -51z" />
    <glyph glyph-name="Thorn" unicode="&#x42e;" horiz-adv-x="644" 
d="M407 -14c-81.333 0 -139.332 41.667 -173.999 125c-27.333 66 -41 161 -41 285h-77v-396h-75v803h75v-342h77c0 108 14.333 191 43 249c35.333 71.333 92.333 107 171 107c83.333 0 141.666 -41.333 174.999 -124c25.333 -62.667 38 -156.334 38 -281.001
c0 -84.667 -4.66699 -153.667 -14 -207c-12 -69.333 -32.333 -121.666 -61 -156.999c-33.333 -41.333 -79 -62 -137 -62zM407.001 51c55.333 0 92.666 36 111.999 108c14 52 21 136.333 21 253c0 137.333 -11.167 228.333 -33.5 273s-55.833 67 -100.5 67
c-54 0 -91.667 -35.667 -113 -107c-15.333 -52 -23 -129.667 -23 -233c0 -80 2.83301 -144.333 8.5 -193s17.834 -87.667 36.501 -117c21.333 -34 52 -51 92 -51z" />
    <glyph glyph-name="germandbls" unicode="&#xdf;" horiz-adv-x="432" 
d="M317 0v384h-116l-101 -384h-79l112 396c-37.333 18 -65.333 45.667 -84 83s-28 78 -28 122c0 54.667 15.667 101 47 139c34.667 42 80 63 136 63h188v-803h-75zM317 449l0.000976562 289.001h-100c-38.667 0 -67.834 -12.5 -87.501 -37.5s-29.5 -58.167 -29.5 -99.5
c0 -44.667 10 -80.334 30 -107.001c22.667 -30 53.667 -45 93 -45h94z" />
    <glyph glyph-name="germandbls" unicode="&#x42f;" horiz-adv-x="432" 
d="M317 0v384h-116l-101 -384h-79l112 396c-37.333 18 -65.333 45.667 -84 83s-28 78 -28 122c0 54.667 15.667 101 47 139c34.667 42 80 63 136 63h188v-803h-75zM317 449l0.000976562 289.001h-100c-38.667 0 -67.834 -12.5 -87.501 -37.5s-29.5 -58.167 -29.5 -99.5
c0 -44.667 10 -80.334 30 -107.001c22.667 -30 53.667 -45 93 -45h94z" />
    <glyph glyph-name="agrave" unicode="&#xe0;" horiz-adv-x="378" 
d="M341 423l-0.000976562 -423h-70v52c-13.333 -19.333 -29.666 -34.166 -48.999 -44.499s-39.333 -15.5 -60 -15.5c-36.667 0 -68 11.667 -94 35c-28.667 26 -43 59 -43 99c0 68.667 30.333 124 91 166l155 96c0 88 -26 132 -78 132c-22.667 0 -42.834 -10.667 -60.501 -32
s-26.5 -48.333 -26.5 -81l-66 11c5.33301 47.333 22.5 86.166 51.5 116.499s64.167 45.5 105.5 45.5c40.667 0 74.834 -14.833 102.501 -44.5s41.5 -67.167 41.5 -112.5zM270.999 118v201.999c-42.667 -20.667 -79.334 -45 -110.001 -73c-41.333 -38 -62 -75.333 -62 -112
c0 -29.333 6.33301 -50.5 19 -63.5s30.334 -19.5 53.001 -19.5c20.667 0 40.5 5.83301 59.5 17.5s32.5 27.834 40.5 48.501z" />
    <glyph glyph-name="agrave" unicode="&#x430;" horiz-adv-x="378" 
d="M341 423l-0.000976562 -423h-70v52c-13.333 -19.333 -29.666 -34.166 -48.999 -44.499s-39.333 -15.5 -60 -15.5c-36.667 0 -68 11.667 -94 35c-28.667 26 -43 59 -43 99c0 68.667 30.333 124 91 166l155 96c0 88 -26 132 -78 132c-22.667 0 -42.834 -10.667 -60.501 -32
s-26.5 -48.333 -26.5 -81l-66 11c5.33301 47.333 22.5 86.166 51.5 116.499s64.167 45.5 105.5 45.5c40.667 0 74.834 -14.833 102.501 -44.5s41.5 -67.167 41.5 -112.5zM270.999 118v201.999c-42.667 -20.667 -79.334 -45 -110.001 -73c-41.333 -38 -62 -75.333 -62 -112
c0 -29.333 6.33301 -50.5 19 -63.5s30.334 -19.5 53.001 -19.5c20.667 0 40.5 5.83301 59.5 17.5s32.5 27.834 40.5 48.501z" />
    <glyph glyph-name="aacute" unicode="&#xe1;" horiz-adv-x="420" 
d="M212 -8c-51.333 0 -92.0049 22.667 -122.005 68c-34.667 52 -52 130.667 -52 236c0 27.333 2 66 6 116s6 95.667 6 137c0 36.667 1.33301 67.167 4 91.5s9.66699 46.166 21 65.499c24.667 42 70.334 63 137.001 63c30.667 0 52.334 2.33301 65.001 7
c17.333 6.66699 32 20.334 44 41.001l51 -39c-11.333 -30.667 -29.666 -50.334 -54.999 -59.001c-18.667 -6.66699 -53.667 -10 -105 -10c-16 0 -31.167 -2.66699 -45.5 -8s-26.166 -13.666 -35.499 -24.999c-13.333 -16 -21.666 -36.833 -24.999 -62.5
s-5 -60.834 -5 -105.501c14.667 24.667 31.167 42.834 49.5 54.501s38.833 17.5 61.5 17.5c50 0 90 -20.333 120 -61c36 -48.667 54 -123 54 -223c0 -102.667 -18.333 -181 -55 -235c-31.333 -46 -71 -69 -119 -69zM211.995 52c33.333 0 58.167 19.5 74.5 58.5
s24.5 100.833 24.5 185.5c0 88 -10.333 149.667 -31 185c-15.333 26 -38 39 -68 39c-31.333 0 -54.666 -13.333 -69.999 -40c-19.333 -34.667 -29 -96 -29 -184c0 -86.667 7.66699 -149 23 -187s40.666 -57 75.999 -57z" />
    <glyph glyph-name="aacute" unicode="&#x431;" horiz-adv-x="420" 
d="M212 -8c-51.333 0 -92.0049 22.667 -122.005 68c-34.667 52 -52 130.667 -52 236c0 27.333 2 66 6 116s6 95.667 6 137c0 36.667 1.33301 67.167 4 91.5s9.66699 46.166 21 65.499c24.667 42 70.334 63 137.001 63c30.667 0 52.334 2.33301 65.001 7
c17.333 6.66699 32 20.334 44 41.001l51 -39c-11.333 -30.667 -29.666 -50.334 -54.999 -59.001c-18.667 -6.66699 -53.667 -10 -105 -10c-16 0 -31.167 -2.66699 -45.5 -8s-26.166 -13.666 -35.499 -24.999c-13.333 -16 -21.666 -36.833 -24.999 -62.5
s-5 -60.834 -5 -105.501c14.667 24.667 31.167 42.834 49.5 54.501s38.833 17.5 61.5 17.5c50 0 90 -20.333 120 -61c36 -48.667 54 -123 54 -223c0 -102.667 -18.333 -181 -55 -235c-31.333 -46 -71 -69 -119 -69zM211.995 52c33.333 0 58.167 19.5 74.5 58.5
s24.5 100.833 24.5 185.5c0 88 -10.333 149.667 -31 185c-15.333 26 -38 39 -68 39c-31.333 0 -54.666 -13.333 -69.999 -40c-19.333 -34.667 -29 -96 -29 -184c0 -86.667 7.66699 -149 23 -187s40.666 -57 75.999 -57z" />
    <glyph glyph-name="acircumflex" unicode="&#xe2;" horiz-adv-x="374" 
d="M36 0v570.999h154c38.667 0 72 -13.667 100 -41s42 -60.666 42 -99.999c0 -26 -8.33301 -51.333 -25 -76s-36.667 -40.667 -60 -48c28 -6.66699 52 -24 72 -52s30 -59 30 -93c0 -44.667 -15.667 -82.667 -47 -114s-70 -47 -116 -47h-150zM106 510.999v-175.001h80
c21.333 0 39.333 9 54 27s22 40.333 22 67c0 22.667 -7.16699 41.834 -21.5 57.501s-32.5 23.5 -54.5 23.5h-80zM106 275.998v-216h76c30 0 52.833 10.167 68.5 30.5s23.5 47.5 23.5 81.5c0 28.667 -8.5 53.167 -25.5 73.5s-39.167 30.5 -66.5 30.5h-76z" />
    <glyph glyph-name="acircumflex" unicode="&#x432;" horiz-adv-x="374" 
d="M36 0v570.999h154c38.667 0 72 -13.667 100 -41s42 -60.666 42 -99.999c0 -26 -8.33301 -51.333 -25 -76s-36.667 -40.667 -60 -48c28 -6.66699 52 -24 72 -52s30 -59 30 -93c0 -44.667 -15.667 -82.667 -47 -114s-70 -47 -116 -47h-150zM106 510.999v-175.001h80
c21.333 0 39.333 9 54 27s22 40.333 22 67c0 22.667 -7.16699 41.834 -21.5 57.501s-32.5 23.5 -54.5 23.5h-80zM106 275.998v-216h76c30 0 52.833 10.167 68.5 30.5s23.5 47.5 23.5 81.5c0 28.667 -8.5 53.167 -25.5 73.5s-39.167 30.5 -66.5 30.5h-76z" />
    <glyph glyph-name="atilde" unicode="&#xe3;" horiz-adv-x="252" 
d="M36 0v572h211v-60h-141v-512h-70z" />
    <glyph glyph-name="atilde" unicode="&#x433;" horiz-adv-x="252" 
d="M36 0v572h211v-60h-141v-512h-70z" />
    <glyph glyph-name="adieresis" unicode="&#xe4;" horiz-adv-x="415" 
d="M286 60v451.999h-131v-256c0 -34.667 -5 -70.667 -15 -108c-12 -43.333 -27 -72.666 -45 -87.999h191zM85 571.999l271.001 -0.000976562v-512h44v-210h-60v150h-270v-150h-60v210c25.333 16.667 44.666 44.334 57.999 83.001c11.333 33.333 17 70 17 110v319z" />
    <glyph glyph-name="adieresis" unicode="&#x434;" horiz-adv-x="415" 
d="M286 60v451.999h-131v-256c0 -34.667 -5 -70.667 -15 -108c-12 -43.333 -27 -72.666 -45 -87.999h191zM85 571.999l271.001 -0.000976562v-512h44v-210h-60v150h-270v-150h-60v210c25.333 16.667 44.666 44.334 57.999 83.001c11.333 33.333 17 70 17 110v319z" />
    <glyph glyph-name="aring" unicode="&#xe5;" horiz-adv-x="378" 
d="M349 280l-251 0.000976562c0 -68.667 8.5 -123.834 25.5 -165.501s43.833 -62.5 80.5 -62.5c18 0 33.667 6 47 18c18 16.667 30.667 44 38 82l60 -7c-6.66699 -54.667 -25.667 -95 -57 -121c-25.333 -21.333 -57.666 -32 -96.999 -32
c-52.667 0 -92.834 25.333 -120.501 76s-41.5 123 -41.5 217c0 97.333 13.833 170.833 41.5 220.5s67.5 74.5 119.5 74.5c50 0 87.667 -22.333 113 -67c28 -49.333 42 -127 42 -233zM98 340.001h184c0 59.333 -7.83301 104.166 -23.5 134.499s-37.167 45.5 -64.5 45.5
c-28 0 -51 -16.167 -69 -48.5s-27 -76.166 -27 -131.499z" />
    <glyph glyph-name="aring" unicode="&#x435;" horiz-adv-x="378" 
d="M349 280l-251 0.000976562c0 -68.667 8.5 -123.834 25.5 -165.501s43.833 -62.5 80.5 -62.5c18 0 33.667 6 47 18c18 16.667 30.667 44 38 82l60 -7c-6.66699 -54.667 -25.667 -95 -57 -121c-25.333 -21.333 -57.666 -32 -96.999 -32
c-52.667 0 -92.834 25.333 -120.501 76s-41.5 123 -41.5 217c0 97.333 13.833 170.833 41.5 220.5s67.5 74.5 119.5 74.5c50 0 87.667 -22.333 113 -67c28 -49.333 42 -127 42 -233zM98 340.001h184c0 59.333 -7.83301 104.166 -23.5 134.499s-37.167 45.5 -64.5 45.5
c-28 0 -51 -16.167 -69 -48.5s-27 -76.166 -27 -131.499z" />
    <glyph glyph-name="ae" unicode="&#xe6;" horiz-adv-x="544" 
d="M237 0v187l-73 130l-99 -317h-65l127 379l-111 193h72l149 -280v280h70v-280l149 280h72l-111 -193l127 -379h-65l-99 317l-73 -130v-187h-70z" />
    <glyph glyph-name="ae" unicode="&#x436;" horiz-adv-x="544" 
d="M237 0v187l-73 130l-99 -317h-65l127 379l-111 193h72l149 -280v280h70v-280l149 280h72l-111 -193l127 -379h-65l-99 317l-73 -130v-187h-70z" />
    <glyph glyph-name="ccedilla" unicode="&#xe7;" horiz-adv-x="354" 
d="M24 171l65.001 8.00293c0 -32 5.66699 -59.333 17 -82c15.333 -30 37.666 -45 66.999 -45c28.667 0 49.334 12.333 62.001 37c10.667 20.667 16 50 16 88c0 27.333 -6.33301 49.666 -19 66.999c-15.333 20.667 -37.333 31 -66 31h-49v60h49
c26.667 0 45.667 8.83301 57 26.5s17 40.5 17 68.5c0 27.333 -4 48 -12 62c-10.667 18 -28.334 27 -53.001 27c-42.667 0 -68 -36 -76 -108l-65 8c0 58 16.667 101 50 129c24.667 20.667 54.667 31 90 31c42.667 0 76.667 -16 102 -48
c22.667 -28.667 34 -62.334 34 -101.001c0 -28 -7.83301 -53.833 -23.5 -77.5s-34.167 -38.834 -55.5 -45.501c24.667 -6.66699 46.667 -23.667 66 -51s29 -57.333 29 -90c0 -47.333 -13 -87.333 -39 -120c-28.667 -36 -67.667 -54 -117 -54c-38 0 -70.167 16.333 -96.5 49
s-42.833 76 -49.5 130z" />
    <glyph glyph-name="ccedilla" unicode="&#x437;" horiz-adv-x="354" 
d="M24 171l65.001 8.00293c0 -32 5.66699 -59.333 17 -82c15.333 -30 37.666 -45 66.999 -45c28.667 0 49.334 12.333 62.001 37c10.667 20.667 16 50 16 88c0 27.333 -6.33301 49.666 -19 66.999c-15.333 20.667 -37.333 31 -66 31h-49v60h49
c26.667 0 45.667 8.83301 57 26.5s17 40.5 17 68.5c0 27.333 -4 48 -12 62c-10.667 18 -28.334 27 -53.001 27c-42.667 0 -68 -36 -76 -108l-65 8c0 58 16.667 101 50 129c24.667 20.667 54.667 31 90 31c42.667 0 76.667 -16 102 -48
c22.667 -28.667 34 -62.334 34 -101.001c0 -28 -7.83301 -53.833 -23.5 -77.5s-34.167 -38.834 -55.5 -45.501c24.667 -6.66699 46.667 -23.667 66 -51s29 -57.333 29 -90c0 -47.333 -13 -87.333 -39 -120c-28.667 -36 -67.667 -54 -117 -54c-38 0 -70.167 16.333 -96.5 49
s-42.833 76 -49.5 130z" />
    <glyph glyph-name="egrave" unicode="&#xe8;" horiz-adv-x="405" 
d="M36 0v572h70v-428l167 428h92v-572h-70v478l-189 -478h-70z" />
    <glyph glyph-name="egrave" unicode="&#x438;" horiz-adv-x="405" 
d="M36 0v572h70v-428l167 428h92v-572h-70v478l-189 -478h-70z" />
    <glyph glyph-name="eacute" unicode="&#xe9;" horiz-adv-x="405" 
d="M36 0v572h70v-428l167 428h92v-572h-70v478l-189 -478h-70zM203 628c-34 0 -63.001 8.99805 -87.001 26.998c-28 20.667 -47 52.334 -57 95.001l60 15c14 -55.333 42 -83 84 -83c20 0 36.833 6.83301 50.5 20.5s24.167 34.834 31.5 63.501l59 -17
c-8 -40.667 -26.667 -71.667 -56 -93c-25.333 -18.667 -53.666 -28 -84.999 -28z" />
    <glyph glyph-name="eacute" unicode="&#x439;" horiz-adv-x="405" 
d="M36 0v572h70v-428l167 428h92v-572h-70v478l-189 -478h-70zM203 628c-34 0 -63.001 8.99805 -87.001 26.998c-28 20.667 -47 52.334 -57 95.001l60 15c14 -55.333 42 -83 84 -83c20 0 36.833 6.83301 50.5 20.5s24.167 34.834 31.5 63.501l59 -17
c-8 -40.667 -26.667 -71.667 -56 -93c-25.333 -18.667 -53.666 -28 -84.999 -28z" />
    <glyph glyph-name="ecircumflex" unicode="&#xea;" horiz-adv-x="354" 
d="M106 0h-70v572h70v-280l149 280h72l-111 -193l127 -379h-70l-94 317l-73 -130v-187z" />
    <glyph glyph-name="ecircumflex" unicode="&#x43a;" horiz-adv-x="354" 
d="M106 0h-70v572h70v-280l149 280h72l-111 -193l127 -379h-70l-94 317l-73 -130v-187z" />
    <glyph glyph-name="edieresis" unicode="&#xeb;" horiz-adv-x="415" 
d="M286 512h-130.999v-381c0 -38.667 -8.16699 -71.5 -24.5 -98.5s-36.5 -40.5 -60.5 -40.5c-15.333 0 -26.333 0.333008 -33 1s-15.667 3 -27 7v60c11.333 -3.33301 20.666 -5 27.999 -5c31.333 0 47 27.667 47 83v434h271v-572h-70v512z" />
    <glyph glyph-name="edieresis" unicode="&#x43b;" horiz-adv-x="415" 
d="M286 512h-130.999v-381c0 -38.667 -8.16699 -71.5 -24.5 -98.5s-36.5 -40.5 -60.5 -40.5c-15.333 0 -26.333 0.333008 -33 1s-15.667 3 -27 7v60c11.333 -3.33301 20.666 -5 27.999 -5c31.333 0 47 27.667 47 83v434h271v-572h-70v512z" />
    <glyph glyph-name="igrave" unicode="&#xec;" horiz-adv-x="524" 
d="M36 572h108l118 -478l118 478h108v-572h-70v486l-126 -486h-60l-126 486v-486h-70v572z" />
    <glyph glyph-name="igrave" unicode="&#x43c;" horiz-adv-x="524" 
d="M36 572h108l118 -478l118 478h108v-572h-70v486l-126 -486h-60l-126 486v-486h-70v572z" />
    <glyph glyph-name="iacute" unicode="&#xed;" horiz-adv-x="384" 
d="M36 0v572h70v-236h172v236h70v-572h-70v276h-172v-276h-70z" />
    <glyph glyph-name="iacute" unicode="&#x43d;" horiz-adv-x="384" 
d="M36 0v572h70v-236h172v236h70v-572h-70v276h-172v-276h-70z" />
    <glyph glyph-name="icircumflex" unicode="&#xee;" horiz-adv-x="415" 
d="M207 -8c-51.333 0 -92 22.667 -122 68c-34.667 52 -52 130.667 -52 236c0 98 17.667 171.667 53 221c30 42 70.333 63 121 63c50 0 90 -20.333 120 -61c36 -48.667 54 -123 54 -223c0 -102.667 -18.333 -181 -55 -235c-31.333 -46 -71 -69 -119 -69zM207 52
c33.333 0 58.167 19.5 74.5 58.5s24.5 100.833 24.5 185.5c0 88 -10.333 149.667 -31 185c-15.333 26 -38 39 -68 39c-31.333 0 -54.666 -13.333 -69.999 -40c-19.333 -34.667 -29 -96 -29 -184c0 -86.667 7.66699 -149 23 -187s40.666 -57 75.999 -57z" />
    <glyph glyph-name="icircumflex" unicode="&#x43e;" horiz-adv-x="415" 
d="M207 -8c-51.333 0 -92 22.667 -122 68c-34.667 52 -52 130.667 -52 236c0 98 17.667 171.667 53 221c30 42 70.333 63 121 63c50 0 90 -20.333 120 -61c36 -48.667 54 -123 54 -223c0 -102.667 -18.333 -181 -55 -235c-31.333 -46 -71 -69 -119 -69zM207 52
c33.333 0 58.167 19.5 74.5 58.5s24.5 100.833 24.5 185.5c0 88 -10.333 149.667 -31 185c-15.333 26 -38 39 -68 39c-31.333 0 -54.666 -13.333 -69.999 -40c-19.333 -34.667 -29 -96 -29 -184c0 -86.667 7.66699 -149 23 -187s40.666 -57 75.999 -57z" />
    <glyph glyph-name="idieresis" unicode="&#xef;" horiz-adv-x="384" 
d="M36 0v572h312v-572h-70v512h-172v-512h-70z" />
    <glyph glyph-name="idieresis" unicode="&#x43f;" horiz-adv-x="384" 
d="M36 0v572h312v-572h-70v512h-172v-512h-70z" />
    <glyph glyph-name="eth" unicode="&#xf0;" horiz-adv-x="397" 
d="M36 572l70 0.000976562v-52c17.333 19.333 34 33.666 50 42.999c18.667 11.333 38.334 17 59.001 17c52.667 0 92.667 -32.667 120 -98c22 -53.333 33 -119 33 -197c0 -79.333 -12.333 -146 -37 -200c-28.667 -62 -68.334 -93 -119.001 -93
c-20.667 0 -40.5 5.5 -59.5 16.5s-34.5 25.5 -46.5 43.5v-250h-70v770zM106 123.001c25.333 -47.333 52 -71.001 80 -71.001c38.667 0 67 24.667 85 74c14.667 40.667 22 94.334 22 161.001c0 67.333 -6 120 -18 158c-16 50 -41 75 -75 75c-14 0 -29.667 -6.16699 -47 -18.5
s-33 -30.5 -47 -54.5v-324z" />
    <glyph glyph-name="eth" unicode="&#x440;" horiz-adv-x="397" 
d="M36 572l70 0.000976562v-52c17.333 19.333 34 33.666 50 42.999c18.667 11.333 38.334 17 59.001 17c52.667 0 92.667 -32.667 120 -98c22 -53.333 33 -119 33 -197c0 -79.333 -12.333 -146 -37 -200c-28.667 -62 -68.334 -93 -119.001 -93
c-20.667 0 -40.5 5.5 -59.5 16.5s-34.5 25.5 -46.5 43.5v-250h-70v770zM106 123.001c25.333 -47.333 52 -71.001 80 -71.001c38.667 0 67 24.667 85 74c14.667 40.667 22 94.334 22 161.001c0 67.333 -6 120 -18 158c-16 50 -41 75 -75 75c-14 0 -29.667 -6.16699 -47 -18.5
s-33 -30.5 -47 -54.5v-324z" />
    <glyph glyph-name="ntilde" unicode="&#xf1;" horiz-adv-x="364" 
d="M334 420l-65.001 -8.00293c-4 42.667 -11.167 71.334 -21.5 86.001s-28.5 22 -54.5 22c-28.667 0 -51.5 -19.667 -68.5 -59s-25.5 -96.333 -25.5 -171c0 -70.667 7.83301 -128 23.5 -172s39.834 -66 72.501 -66c30 0 52 12.667 66 38c12 21.333 18 51.333 18 90l65 -8
c0 -45.333 -12.667 -85.666 -38 -120.999c-28 -39.333 -64 -59 -108 -59c-60.667 0 -104.667 29.667 -132 89c-22 48 -33 116 -33 204c0 88.667 11.333 157.334 34 206.001c28 59.333 72.667 89 134 89c34 0 62.667 -10.333 86 -31c31.333 -28 47 -71 47 -129z" />
    <glyph glyph-name="ntilde" unicode="&#x441;" horiz-adv-x="364" 
d="M334 420l-65.001 -8.00293c-4 42.667 -11.167 71.334 -21.5 86.001s-28.5 22 -54.5 22c-28.667 0 -51.5 -19.667 -68.5 -59s-25.5 -96.333 -25.5 -171c0 -70.667 7.83301 -128 23.5 -172s39.834 -66 72.501 -66c30 0 52 12.667 66 38c12 21.333 18 51.333 18 90l65 -8
c0 -45.333 -12.667 -85.666 -38 -120.999c-28 -39.333 -64 -59 -108 -59c-60.667 0 -104.667 29.667 -132 89c-22 48 -33 116 -33 204c0 88.667 11.333 157.334 34 206.001c28 59.333 72.667 89 134 89c34 0 62.667 -10.333 86 -31c31.333 -28 47 -71 47 -129z" />
    <glyph glyph-name="ograve" unicode="&#xf2;" horiz-adv-x="302" 
d="M186 512v-512h-70v512h-106v60h282v-60h-106z" />
    <glyph glyph-name="ograve" unicode="&#x442;" horiz-adv-x="302" 
d="M186 512v-512h-70v512h-106v60h282v-60h-106z" />
    <glyph glyph-name="oacute" unicode="&#xf3;" horiz-adv-x="352" 
d="M10 572l70 -0.000976562l104 -444l88 444h70l-125 -572c-12 -53.333 -28.667 -97.666 -50 -132.999c-29.333 -48.667 -64.666 -73 -105.999 -73h-45v60h44c21.333 0 40.333 13.667 57 41c13.333 22 22.666 46.333 27.999 73l6 32z" />
    <glyph glyph-name="oacute" unicode="&#x443;" horiz-adv-x="352" 
d="M10 572l70 -0.000976562l104 -444l88 444h70l-125 -572c-12 -53.333 -28.667 -97.666 -50 -132.999c-29.333 -48.667 -64.666 -73 -105.999 -73h-45v60h44c21.333 0 40.333 13.667 57 41c13.333 22 22.666 46.333 27.999 73l6 32z" />
    <glyph glyph-name="ocircumflex" unicode="&#xf4;" horiz-adv-x="656" 
d="M292 -198l-0.00292969 250.002c-12.667 -18.667 -28.167 -33.334 -46.5 -44.001s-38.166 -16 -59.499 -16c-50 0 -89.333 31 -118 93c-25.333 54.667 -38 121.334 -38 200.001c0 77.333 11 142.666 33 195.999c27.333 66 67.333 99 120 99c20.667 0 39.334 -5 56.001 -15
s34.334 -25 53.001 -45v283h70v-283c17.333 19.333 34 33.666 50 42.999c18.667 11.333 38.334 17 59.001 17c52.667 0 92.667 -32.667 120 -98c22 -53.333 33 -119 33 -197c0 -79.333 -12.333 -146 -37 -200c-28.667 -62 -68.334 -93 -119.001 -93
c-20.667 0 -40.5 5.5 -59.5 16.5s-34.5 25.5 -46.5 43.5v-250h-70zM291.997 123.002v324c-14 24.667 -29.5 43 -46.5 55s-32.833 18 -47.5 18c-34 0 -58.667 -24.667 -74 -74c-12.667 -40 -19 -93 -19 -159c0 -68 7 -121.333 21 -160c18 -50 46.667 -75 86 -75
c28 0 54.667 23.667 80 71zM361.997 123.002c25.333 -47.333 52 -71.001 80 -71.001c38.667 0 67 24.667 85 74c14.667 40.667 22 94.334 22 161.001c0 67.333 -6 120 -18 158c-16 50 -41 75 -75 75c-14 0 -29.667 -6.16699 -47 -18.5s-33 -30.5 -47 -54.5v-324z" />
    <glyph glyph-name="ocircumflex" unicode="&#x444;" horiz-adv-x="656" 
d="M292 -198l-0.00292969 250.002c-12.667 -18.667 -28.167 -33.334 -46.5 -44.001s-38.166 -16 -59.499 -16c-50 0 -89.333 31 -118 93c-25.333 54.667 -38 121.334 -38 200.001c0 77.333 11 142.666 33 195.999c27.333 66 67.333 99 120 99c20.667 0 39.334 -5 56.001 -15
s34.334 -25 53.001 -45v283h70v-283c17.333 19.333 34 33.666 50 42.999c18.667 11.333 38.334 17 59.001 17c52.667 0 92.667 -32.667 120 -98c22 -53.333 33 -119 33 -197c0 -79.333 -12.333 -146 -37 -200c-28.667 -62 -68.334 -93 -119.001 -93
c-20.667 0 -40.5 5.5 -59.5 16.5s-34.5 25.5 -46.5 43.5v-250h-70zM291.997 123.002v324c-14 24.667 -29.5 43 -46.5 55s-32.833 18 -47.5 18c-34 0 -58.667 -24.667 -74 -74c-12.667 -40 -19 -93 -19 -159c0 -68 7 -121.333 21 -160c18 -50 46.667 -75 86 -75
c28 0 54.667 23.667 80 71zM361.997 123.002c25.333 -47.333 52 -71.001 80 -71.001c38.667 0 67 24.667 85 74c14.667 40.667 22 94.334 22 161.001c0 67.333 -6 120 -18 158c-16 50 -41 75 -75 75c-14 0 -29.667 -6.16699 -47 -18.5s-33 -30.5 -47 -54.5v-324z" />
    <glyph glyph-name="otilde" unicode="&#xf5;" horiz-adv-x="336" 
d="M19 572h65l84 -209l84 209h65l-111 -266l130 -306h-70l-98 239l-98 -239h-70l130 306z" />
    <glyph glyph-name="otilde" unicode="&#x445;" horiz-adv-x="336" 
d="M19 572h65l84 -209l84 209h65l-111 -266l130 -306h-70l-98 239l-98 -239h-70l130 306z" />
    <glyph glyph-name="odieresis" unicode="&#xf6;" horiz-adv-x="402" 
d="M36 0v572h70v-512h172v512h70v-512h44v-210h-60v150h-296z" />
    <glyph glyph-name="odieresis" unicode="&#x446;" horiz-adv-x="402" 
d="M36 0v572h70v-512h172v512h70v-512h44v-210h-60v150h-296z" />
    <glyph glyph-name="divide" unicode="&#xf7;" horiz-adv-x="364" 
d="M328 572l-0.000976562 -572h-70v236h-87c-43.333 0 -80 14.333 -110 43s-45 63.667 -45 105v188h70v-182c0 -28.667 8.83301 -51.5 26.5 -68.5s39.834 -25.5 66.501 -25.5h79v276h70z" />
    <glyph glyph-name="divide" unicode="&#x447;" horiz-adv-x="364" 
d="M328 572l-0.000976562 -572h-70v236h-87c-43.333 0 -80 14.333 -110 43s-45 63.667 -45 105v188h70v-182c0 -28.667 8.83301 -51.5 26.5 -68.5s39.834 -25.5 66.501 -25.5h79v276h70z" />
    <glyph glyph-name="oslash" unicode="&#xf8;" horiz-adv-x="566" 
d="M530 572v-572h-494v572h70v-512h142v512h70v-512h142v512h70z" />
    <glyph glyph-name="oslash" unicode="&#x448;" horiz-adv-x="566" 
d="M530 572v-572h-494v572h70v-512h142v512h70v-512h142v512h70z" />
    <glyph glyph-name="ugrave" unicode="&#xf9;" horiz-adv-x="587" 
d="M530 572v-512h44v-210h-60v150h-478v572h70v-512h142v512h70v-512h142v512h70z" />
    <glyph glyph-name="ugrave" unicode="&#x449;" horiz-adv-x="587" 
d="M530 572v-512h44v-210h-60v150h-478v572h70v-512h142v512h70v-512h142v512h70z" />
    <glyph glyph-name="uacute" unicode="&#xfa;" horiz-adv-x="398" 
d="M81 0v511.999h-71v60h141v-227h65c43.333 0 80.833 -17.167 112.5 -51.5s47.5 -74.166 47.5 -119.499c0 -48 -14.5 -89 -43.5 -123s-65.833 -51 -110.5 -51h-141zM151 284.999l-0.000976562 -225h55c30.667 0 54.167 10.5 70.5 31.5s24.5 48.5 24.5 82.5
c0 30 -8.66699 56 -26 78s-39.666 33 -66.999 33h-57z" />
    <glyph glyph-name="uacute" unicode="&#x44a;" horiz-adv-x="398" 
d="M81 0v511.999h-71v60h141v-227h65c43.333 0 80.833 -17.167 112.5 -51.5s47.5 -74.166 47.5 -119.499c0 -48 -14.5 -89 -43.5 -123s-65.833 -51 -110.5 -51h-141zM151 284.999l-0.000976562 -225h55c30.667 0 54.167 10.5 70.5 31.5s24.5 48.5 24.5 82.5
c0 30 -8.66699 56 -26 78s-39.666 33 -66.999 33h-57z" />
    <glyph glyph-name="ucircumflex" unicode="&#xfb;" horiz-adv-x="481" 
d="M40 0v570.999h70v-226h65c43.333 0 80.833 -17.167 112.5 -51.5s47.5 -74.166 47.5 -119.499c0 -48 -14.5 -89 -43.5 -123s-65.833 -51 -110.5 -51h-141zM110 284.999l-0.000976562 -225h55c30.667 0 54.167 10.5 70.5 31.5s24.5 48.5 24.5 82.5c0 30 -8.66699 56 -26 78
s-39.666 33 -66.999 33h-57zM374.999 571.999h70v-572h-70v572z" />
    <glyph glyph-name="ucircumflex" unicode="&#x44b;" horiz-adv-x="481" 
d="M40 0v570.999h70v-226h65c43.333 0 80.833 -17.167 112.5 -51.5s47.5 -74.166 47.5 -119.499c0 -48 -14.5 -89 -43.5 -123s-65.833 -51 -110.5 -51h-141zM110 284.999l-0.000976562 -225h55c30.667 0 54.167 10.5 70.5 31.5s24.5 48.5 24.5 82.5c0 30 -8.66699 56 -26 78
s-39.666 33 -66.999 33h-57zM374.999 571.999h70v-572h-70v572z" />
    <glyph glyph-name="udieresis" unicode="&#xfc;" horiz-adv-x="355" 
d="M40 0v570.999h70v-226h65c43.333 0 80.833 -17.167 112.5 -51.5s47.5 -74.166 47.5 -119.499c0 -48 -14.5 -89 -43.5 -123s-65.833 -51 -110.5 -51h-141zM110 284.999l-0.000976562 -225h55c30.667 0 54.167 10.5 70.5 31.5s24.5 48.5 24.5 82.5c0 30 -8.66699 56 -26 78
s-39.666 33 -66.999 33h-57z" />
    <glyph glyph-name="udieresis" unicode="&#x44c;" horiz-adv-x="355" 
d="M40 0v570.999h70v-226h65c43.333 0 80.833 -17.167 112.5 -51.5s47.5 -74.166 47.5 -119.499c0 -48 -14.5 -89 -43.5 -123s-65.833 -51 -110.5 -51h-141zM110 284.999l-0.000976562 -225h55c30.667 0 54.167 10.5 70.5 31.5s24.5 48.5 24.5 82.5c0 30 -8.66699 56 -26 78
s-39.666 33 -66.999 33h-57z" />
    <glyph glyph-name="yacute" unicode="&#xfd;" horiz-adv-x="364" 
d="M35 420c0 58 15.333 100.669 46 128.002c24 21.333 53 32 87 32c62 0 106.667 -29.333 134 -88c22.667 -48.667 34 -117.667 34 -207c0 -86.667 -11 -154.334 -33 -203.001c-27.333 -60 -71.333 -90 -132 -90c-43.333 0 -79.333 19.667 -108 59
c-25.333 35.333 -38 75.666 -38 120.999l65 8c0 -38 6.5 -68.833 19.5 -92.5s34.5 -35.5 64.5 -35.5c31.333 0 55 20.833 71 62.5s24 95.5 24 161.5h-164v60h164c0 57.333 -9 102.333 -27 135s-40 49 -66 49c-25.333 0 -43.333 -7.5 -54 -22.5s-18 -43.5 -22 -85.5z" />
    <glyph glyph-name="yacute" unicode="&#x44d;" horiz-adv-x="364" 
d="M35 420c0 58 15.333 100.669 46 128.002c24 21.333 53 32 87 32c62 0 106.667 -29.333 134 -88c22.667 -48.667 34 -117.667 34 -207c0 -86.667 -11 -154.334 -33 -203.001c-27.333 -60 -71.333 -90 -132 -90c-43.333 0 -79.333 19.667 -108 59
c-25.333 35.333 -38 75.666 -38 120.999l65 8c0 -38 6.5 -68.833 19.5 -92.5s34.5 -35.5 64.5 -35.5c31.333 0 55 20.833 71 62.5s24 95.5 24 161.5h-164v60h164c0 57.333 -9 102.333 -27 135s-40 49 -66 49c-25.333 0 -43.333 -7.5 -54 -22.5s-18 -43.5 -22 -85.5z" />
    <glyph glyph-name="thorn" unicode="&#xfe;" horiz-adv-x="531" 
d="M332 -8c-50 0 -90.332 21.333 -120.999 64c-34.667 48.667 -52 122 -52 220h-53v-276h-70v572h70v-236h53c0 82.667 18.333 145.667 55 189c31.333 36.667 70.666 55 117.999 55c50 0 90 -20.333 120 -61c36 -48.667 54 -123 54 -223c0 -102.667 -18.333 -181 -55 -235
c-31.333 -46 -71 -69 -119 -69zM332.001 52c33.333 0 58.167 19.5 74.5 58.5s24.5 100.833 24.5 185.5c0 88 -10.333 149.667 -31 185c-15.333 26 -38 39 -68 39c-31.333 0 -54.666 -13.333 -69.999 -40c-19.333 -34.667 -29 -96 -29 -184c0 -86.667 7.66699 -149 23 -187
s40.666 -57 75.999 -57z" />
    <glyph glyph-name="thorn" unicode="&#x44e;" horiz-adv-x="531" 
d="M332 -8c-50 0 -90.332 21.333 -120.999 64c-34.667 48.667 -52 122 -52 220h-53v-276h-70v572h70v-236h53c0 82.667 18.333 145.667 55 189c31.333 36.667 70.666 55 117.999 55c50 0 90 -20.333 120 -61c36 -48.667 54 -123 54 -223c0 -102.667 -18.333 -181 -55 -235
c-31.333 -46 -71 -69 -119 -69zM332.001 52c33.333 0 58.167 19.5 74.5 58.5s24.5 100.833 24.5 185.5c0 88 -10.333 149.667 -31 185c-15.333 26 -38 39 -68 39c-31.333 0 -54.666 -13.333 -69.999 -40c-19.333 -34.667 -29 -96 -29 -184c0 -86.667 7.66699 -149 23 -187
s40.666 -57 75.999 -57z" />
    <glyph glyph-name="ydieresis" unicode="&#xff;" horiz-adv-x="356" 
d="M250 0l0.000976562 261h-75l-81 -261h-70l87 280c-28.667 12 -50.334 31 -65.001 57s-22 54 -22 84c0 37.333 14.833 71.833 44.5 103.5s66.5 47.5 110.5 47.5h141v-572h-70zM250.001 321l0.000976562 191.001h-71c-20.667 0 -40 -9.33301 -58 -28
s-27 -40.334 -27 -65.001c0 -27.333 9.16699 -50.5 27.5 -69.5s38.166 -28.5 59.499 -28.5h69z" />
    <glyph glyph-name="ydieresis" unicode="&#x44f;" horiz-adv-x="356" 
d="M250 0l0.000976562 261h-75l-81 -261h-70l87 280c-28.667 12 -50.334 31 -65.001 57s-22 54 -22 84c0 37.333 14.833 71.833 44.5 103.5s66.5 47.5 110.5 47.5h141v-572h-70zM250.001 321l0.000976562 191.001h-71c-20.667 0 -40 -9.33301 -58 -28
s-27 -40.334 -27 -65.001c0 -27.333 9.16699 -50.5 27.5 -69.5s38.166 -28.5 59.499 -28.5h69z" />
    <glyph glyph-name="florin" unicode="&#x192;" horiz-adv-x="375" 
d="M22 -71l123.999 583h-72l13 60h72l25 118c7.33301 35.333 24 65.333 50 90s54 37 84 37h56l-13 -60h-44c-13.333 0 -26.166 -6.16699 -38.499 -18.5s-20.5 -27.5 -24.5 -45.5l-25 -121h87l-13 -60h-87l-124 -583c-7.33301 -35.333 -24 -65.333 -50 -90s-54 -37 -84 -37
h-56l13 60h44c13.333 0 26.333 6.66699 39 20s20.667 29 24 47z" />
    <glyph glyph-name="endash" unicode="&#x2013;" horiz-adv-x="592" 
d="M20 343h552v-60h-552v60z" />
    <glyph glyph-name="emdash" unicode="&#x2014;" horiz-adv-x="944" 
d="M20 343h894v-60h-894v60z" />
    <glyph glyph-name="quoteleft" unicode="&#x2018;" horiz-adv-x="155" 
d="M115 817v-40.001c-10 0 -18.667 -7.16699 -26 -21.5s-11 -36.166 -11 -65.499h37v-88h-75v88c0 38.667 9.33301 70.667 28 96c15.333 20.667 31 31 47 31z" />
    <glyph glyph-name="quoteright" unicode="&#x2019;" horiz-adv-x="155" 
d="M77 715l-37 0.000976562v88h75v-88c0 -38.667 -9.33301 -70.667 -28 -96c-15.333 -20.667 -31 -31 -47 -31v40c10 0 18.667 7.16699 26 21.5s11 36.166 11 65.499z" />
    <glyph glyph-name="quotesinglbase" unicode="&#x201a;" horiz-adv-x="155" 
d="M77 0l-37 0.000976562v88h75v-88c0 -38.667 -9.33301 -70.667 -28 -96c-15.333 -20.667 -31 -31 -47 -31v40c10 0 18.667 7.16699 26 21.5s11 36.166 11 65.499z" />
    <glyph glyph-name="quotedblleft" unicode="&#x201c;" horiz-adv-x="275" 
d="M115 817v-40.001c-10 0 -18.667 -7.16699 -26 -21.5s-11 -36.166 -11 -65.499h37v-88h-75v88c0 38.667 9.33301 70.667 28 96c15.333 20.667 31 31 47 31zM235 816.999v-40.001c-10 0 -18.667 -7.16699 -26 -21.5s-11 -36.166 -11 -65.499h37v-88h-75v88
c0 38.667 9.33301 70.667 28 96c15.333 20.667 31 31 47 31z" />
    <glyph glyph-name="quotedblright" unicode="&#x201d;" horiz-adv-x="275" 
d="M77 715l-37 0.000976562v88h75v-88c0 -38.667 -9.33301 -70.667 -28 -96c-15.333 -20.667 -31 -31 -47 -31v40c10 0 18.667 7.16699 26 21.5s11 36.166 11 65.499zM197 715.001l-37 0.000976562v88h75v-88c0 -38.667 -9.33301 -70.667 -28 -96
c-15.333 -20.667 -31 -31 -47 -31v40c10 0 18.667 7.16699 26 21.5s11 36.166 11 65.499z" />
    <glyph glyph-name="quotedblbase" unicode="&#x201e;" horiz-adv-x="275" 
d="M77 0l-37 0.000976562v88h75v-88c0 -38.667 -9.33301 -70.667 -28 -96c-15.333 -20.667 -31 -31 -47 -31v40c10 0 18.667 7.16699 26 21.5s11 36.166 11 65.499zM197 0.000976562l-37 0.000976562v88h75v-88c0 -38.667 -9.33301 -70.667 -28 -96
c-15.333 -20.667 -31 -31 -47 -31v40c10 0 18.667 7.16699 26 21.5s11 36.166 11 65.499z" />
    <glyph glyph-name="dagger" unicode="&#x2020;" horiz-adv-x="350" 
d="M140 803h70v-231h120v-60h-120v-710h-70v710h-120v60h120v231z" />
    <glyph glyph-name="daggerdbl" unicode="&#x2021;" horiz-adv-x="350" 
d="M140 369v143h-120v60h120v231h70v-231h120v-60h-120v-143h120v-60h-120v-507h-70v507h-120v60h120z" />
    <glyph glyph-name="bullet" unicode="&#x2022;" horiz-adv-x="244" 
d="M122 217c25.333 0 47 9 65 27s27 39.667 27 65s-9 47 -27 65s-39.667 27 -65 27s-47 -9 -65 -27s-27 -39.667 -27 -65s9 -47 27 -65s39.667 -27 65 -27z" />
    <glyph glyph-name="ellipsis" unicode="&#x2026;" horiz-adv-x="460" 
d="M40 88h75v-88h-75v88zM190 88h75v-88h-75v88zM340 88h75v-88h-75v88z" />
    <glyph glyph-name="perthousand" unicode="&#x2030;" horiz-adv-x="913" 
d="M398 803h58l-230 -803h-58zM476 -14c-36.667 0 -65.334 15.666 -86.001 46.999c-24.667 36.667 -37 92.334 -37 167.001c0 70 12.333 121.667 37 155c20.667 28 49.334 42 86.001 42c36 0 64.333 -13.667 85 -41c25.333 -33.333 38 -85.333 38 -156
c0 -72 -13 -127 -39 -165c-22 -32.667 -50 -49 -84 -49zM476 27.999c23.333 0 40.834 13.5 52.501 40.5s17.5 70.833 17.5 131.5c0 62 -7.33301 105 -22 129c-10.667 18 -26.667 27 -48 27c-22.667 0 -39.334 -9 -50.001 -27c-13.333 -23.333 -20 -66.333 -20 -129
c0 -62 5.33301 -106.167 16 -132.5s28.667 -39.5 54 -39.5zM148.001 405.999c-36.667 0 -65.334 15.666 -86.001 46.999c-24.667 36.667 -37 92.334 -37 167.001c0 70 12.333 121.667 37 155c20.667 28 49.334 42 86.001 42c36 0 64.333 -13.667 85 -41
c25.333 -33.333 38 -85.333 38 -156c0 -72 -13 -127 -39 -165c-22 -32.667 -50 -49 -84 -49zM148.001 447.998c23.333 0 40.834 13.5 52.501 40.5s17.5 70.833 17.5 131.5c0 62 -7.33301 105 -22 129c-10.667 18 -26.667 27 -48 27c-22.667 0 -39.334 -9 -50.001 -27
c-13.333 -23.333 -20 -66.333 -20 -129c0 -62 5.33301 -106.167 16 -132.5s28.667 -39.5 54 -39.5zM765.002 -14.002c-36.667 0 -65.334 15.666 -86.001 46.999c-24.667 36.667 -37 92.334 -37 167.001c0 70 12.333 121.667 37 155c20.667 28 49.334 42 86.001 42
c36 0 64.333 -13.667 85 -41c25.333 -33.333 38 -85.333 38 -156c0 -72 -13 -127 -39 -165c-22 -32.667 -50 -49 -84 -49zM765.002 27.9971c23.333 0 40.834 13.5 52.501 40.5s17.5 70.833 17.5 131.5c0 62 -7.33301 105 -22 129c-10.667 18 -26.667 27 -48 27
c-22.667 0 -39.334 -9 -50.001 -27c-13.333 -23.333 -20 -66.333 -20 -129c0 -62 5.33301 -106.167 16 -132.5s28.667 -39.5 54 -39.5z" />
    <glyph glyph-name="guilsinglleft" unicode="&#x2039;" horiz-adv-x="201" 
d="M171 149l-141 141v40l141 141v-70l-93 -92l93 -90v-70z" />
    <glyph glyph-name="guilsinglright" unicode="&#x203a;" horiz-adv-x="201" 
d="M30 471l141 -141v-40l-141 -141v70l93 92l-93 90v70z" />
    <glyph glyph-name="trademark" unicode="&#x2122;" horiz-adv-x="716" 
d="M20 803h262v-40h-106v-442h-50v442h-106v40zM311 803h87l86 -341l84 341h86v-482h-50v421l-107 -421h-26l-110 413v-413h-50v482z" />
    <glyph glyph-name=".null" horiz-adv-x="0" 
 />
    <glyph glyph-name="nonmarkingreturn" horiz-adv-x="230" 
 />
    </font>
</defs>
</svg>
